<?xml version="1.0" encoding="utf-8"?>
<!-- Generator: Adobe Illustrator 27.0.1, SVG Export Plug-In . SVG Version: 6.00 Build 0)  -->
<svg version="1.1" id="logo" xmlns="http://www.w3.org/2000/svg" xmlns:xlink="http://www.w3.org/1999/xlink" x="0px" y="0px"
	 viewBox="0 0 1158.4 724.2" style="enable-background:new 0 0 1158.4 724.2;" xml:space="preserve">
<style type="text/css">
	.st0{fill:#FF4040;}
	.st1{fill:#FFFFFF;}
	.st2{fill:#9F8F7C;}
</style>
<path class="st0" d="M751.6,383.9c0,161.1-172.4,229.3-172.4,229.3s-172.4-68.3-172.4-229.3V164h344.7L751.6,383.9z M391.8,148.3
	v236c0,175.1,187.4,249.3,187.4,249.3s187.4-74.2,187.4-249.3v-236L391.8,148.3z"/>
<path class="st0" d="M480.6,322.5h32v24c0,46.3,18,67.7,44.2,76.1v25.2c-41.2-6.8-76.2-35.9-76.2-94.1L480.6,322.5z M461.9,320.4
	c-3.5,3.1-7.2,17-11.3,29.2l-6.3,18.5l-2.8-82.9l17,8.8h238.1l19.4-9.8l0.9,83l-9-23.2c-4.1-10-9.7-24.2-15.7-26.1
	c-5-1.9-8.5-2.2-13.8-2.2H595l0.6,135.2c0,6.9-0.6,11.9,3.8,17.6c3.1,4.1,21.4,8.8,28.9,13.2l6.6,4H523.8l7.5-4.7
	c7.2-4.1,24.2-8.8,28.6-14.1c4.1-5.3,4.4-10.4,4.4-17.3L564,316l-93,0.3C467.2,316.3,465,318.2,461.9,320.4 M553.8,244.9l-7.5,4.4
	c-7.8,4.4-26.7,8.8-29.8,12.9c-4.1,5.3-3.8,10.7-3.8,17.6v8.1h-32v-10.6c0-5.3,1.3-10.4-2.2-15.1c-4.4-5.4-21-8.8-29.5-13.2
	l-8.2-4.1L553.8,244.9z M717.8,244.9l-7.5,4.4c-7.5,4.4-26.4,8.8-29.8,12.9c-4.1,5.3-4.4,10.4-4.4,17.3v8.4h-29.5v-9.1
	c0-5.7-0.3-11.6-4.1-16.6c-4.4-5.4-20.7-8.8-29.5-13.2l-8.2-4.1L717.8,244.9z M676,349.4c0,59.6-33.5,89.6-74.8,97.7v-22.7
	c25.7-7.2,45.3-29.6,45.3-63.7v-38.1H676V349.4z M579.2,598.9c0,0,161.7-64,161.7-215.1V175.4H417.5v208.3
	C417.5,534.8,579.2,598.9,579.2,598.9"/>
<path class="st1" d="M696.6,294H458.4l-17-8.8l2.8,82.9l6.3-18.5c4.1-12.3,7.9-26.1,11.3-29.2c3.1-2.2,5.3-4.1,9.1-4.1l93-0.3
	l0.3,133.7c0,6.9-0.3,11.9-4.4,17.3c-4.4,5.3-21.4,10-28.6,14.1l-7.5,4.7H635l-6.6-4c-7.5-4.4-25.8-9.1-28.9-13.2
	c-4.4-5.6-3.8-10.7-3.8-17.6l-0.6-135.2h83.3c5.3,0,8.8,0.3,13.8,2.2c6,1.9,11.6,16,15.7,26.1l9.1,23.2l-1-83L696.6,294z"/>
<path class="st1" d="M556.8,422.7c-26.3-8.4-44.2-29.9-44.2-76.1v-24h-32v31.2c0,58.3,35,87.3,76.2,94.1L556.8,422.7z"/>
<path class="st1" d="M478.4,262.1c3.5,4.7,2.2,9.8,2.2,15.1v10.6h32v-8.1c0-6.9-0.3-12.2,3.8-17.6c3.1-4.1,22-8.5,29.8-12.9l7.5-4.4
	h-113l8.2,4C457.3,253.3,474,256.8,478.4,262.1"/>
<path class="st1" d="M646.5,360.7c0,34.1-19.6,56.5-45.3,63.7v22.7c41.2-8.1,74.8-38.1,74.8-97.7v-26.8h-29.5V360.7z"/>
<path class="st1" d="M612.8,249c8.8,4.4,25.1,7.9,29.5,13.2c3.8,5,4.1,11,4.1,16.6v9.1H676v-8.4c0-6.9,0.3-11.9,4.4-17.3
	c3.5-4.1,22.3-8.5,29.8-12.9l7.5-4.4H604.7L612.8,249z"/>
<path class="st2" d="M965.6,603.5l2.2-2.1c18-16.4,35.1-33.8,51.3-51.9c-9.2,2.3-30.1,6.3-77.8,14.8c-49.3,8.8-116,20.8-124.4,25.5
	c1.5,1.3,5.2,3.7,13.8,4.2c7.1,0.4,16.2,0.2,24.9-0.1c22.1-0.6,36-0.7,37.8,5l0.1,0.3c1.7,3.4,3.8,9.4,6.5,17.1
	c4,11.2,9.1,25.6,15.2,38.9c33.9-7,71.4-14.2,102.5-20.2c23.5-4.5,44.6-8.6,55-10.8c-35.4-5.6-70.5-12.3-104.4-20L965.6,603.5z"/>
<path class="st2" d="M890.1,599.3c-2.8-3.1-21.5-2.6-34.3-2.3c-8.8,0.3-17.9,0.5-25.2,0.1c-5.8-0.3-9.8-1.5-12.4-2.8l9.9,27.2
	C865.2,613.2,882.5,604.6,890.1,599.3z"/>
<path class="st2" d="M256.5,616.3c2.7-7.7,4.8-13.7,6.5-17.1l0.1-0.3c1.8-5.7,15.6-5.6,37.7-5c8.8,0.3,17.8,0.5,25,0.1
	c8.7-0.5,12.4-2.8,13.9-4.2c-8.2-4.8-74.8-17.8-123.9-27.4c-44.8-8.7-66.5-13.1-76.2-15.7c16.1,18.1,33.1,35.4,51,51.8l2.2,2l-3,0.7
	c-33.9,7.8-69,14.5-104.4,20.1c11.1,2.7,35.3,7.7,62.2,13.4c28.5,6,62.6,13.1,93.9,20C247.6,641.5,252.6,627.3,256.5,616.3
	L256.5,616.3z"/>
<path class="st2" d="M300.8,597c-4.6-0.1-9.9-0.3-15-0.3c-9.1,0-17.5,0.5-19.3,2.5l0.1,0.1c7.7,5.3,24.9,13.9,62,22.3l9.9-27.2
	c-2.6,1.3-6.6,2.5-12.4,2.8C318.8,597.5,309.6,597.3,300.8,597z"/>
<path class="st2" d="M341.9,589.7L341.9,589.7C341.8,589.7,341.9,589.7,341.9,589.7z"/>
<path class="st2" d="M573.8,669c-6,0-8.9,4.8-8.9,17.2c0,13.1,3,18.3,8.8,18.3c6.1,0,8.8-4.7,8.8-17
	C582.6,674.6,579.9,669,573.8,669z"/>
<path class="st2" d="M641.9,675l-4.2,14.6l9.7-0.5l-5.3-14.1L641.9,675L641.9,675z"/>
<path class="st2" d="M616.7,676.7c-0.2-5.8-2.1-7.6-6.4-7.5c-1.1,0-2.3,0.2-3.4,0.5l0.4,15.2l3.1-0.1
	C614.9,684.7,616.9,682.6,616.7,676.7L616.7,676.7z"/>
<path class="st2" d="M363.7,653.9c-1.3-0.2-2.5-0.3-3.8-0.2l-2.5,16.3c0.9,0.3,1.8,0.5,2.7,0.6c4.5,0.7,7.3-1,8.3-7.4
	C369.3,657.2,367.7,654.5,363.7,653.9z"/>
<path class="st2" d="M748.4,658.1c-5.9,0.8-8.2,5.9-6.7,18.2c1.6,13,5.3,17.8,11.1,17.1c6-0.8,8.2-5.8,6.6-18
	C757.8,662.6,754.5,657.3,748.4,658.1L748.4,658.1z"/>
<path class="st2" d="M912.9,657.4c-0.2-0.5-0.5-1-0.7-1.5c-6.1-13.2-11.1-27.4-15-38.5c-2-5.5-3.6-10.1-4.9-13.5
	c-0.2-0.6-0.5-1.2-0.7-1.7l-0.3,0.2c-4.5,3-11.8,6.9-23.6,11.2c-12.7,4.5-25.6,8.1-38.7,11l-1.6,0.3l-0.5,0.1
	c-0.4,0.1-0.7,0.2-1.1,0.2c-46.7,10.3-123,20.2-247.5,23.6h-0.1c-124.5-3.4-200.8-13.3-247.5-23.6c-0.4-0.1-0.8-0.2-1.1-0.2
	l-0.4-0.1l-1.6-0.3c-13.1-2.9-26-6.5-38.6-11c-11.9-4.3-19.2-8.3-23.7-11.3l-0.2-0.2c-0.2,0.5-0.5,1.1-0.7,1.7
	c-1.4,3.4-3,8-4.9,13.5c-3.9,11-16,40.5-16.2,41c-4.4,9.4-9.4,18.2-15,24.9c288,54.6,387.3,54.6,699.9,0l-14.7-24.3
	C913.3,658.3,913.1,657.8,912.9,657.4L912.9,657.4z M299.7,667.2c-1.4,6.4-6,10.6-15.1,8.5s-13.7-6.3-11.7-15.3l4.5-20
	c0.7-3,0.4-3.2-1.4-4.1l-1.7-0.8l0.1-0.7l16,3.6l-0.2,0.7h-1.8c-2,0-2.3,0.2-3,3.1l-4.6,20.7c-1.4,6.2,0.7,9.5,6.8,10.8
	s8.9-1.4,10.3-7.5l4.3-19.1c0.8-3.4,0.8-4.3-1.2-5.2l-2-1l0.1-0.7l10.2,2.3l-0.1,0.7l-1.9,0.1c-1.8,0-2.3,0.6-3,4L299.7,667.2z
	 M320.4,682.5l-16-2.9l0.1-0.7h1.8c2-0.1,2.3-0.2,2.8-3.2l5-27.1c0.6-3,0.3-3.2-1.5-4l-1.7-0.7l0.1-0.7l16,2.9l-0.1,0.7l-1.7,0.1
	c-2.1,0.1-2.3,0.3-2.9,3.2l-5,27c-0.5,2.9-0.4,3.2,1.5,4l1.6,0.7L320.4,682.5z M339.6,686.1l-10.7-2c-3.4-6.2-6.1-12.7-7.9-19.5
	l0.1-0.7l12.3-10.1c1-0.7,1.8-1.8,2.2-3c0.1-0.8-0.4-1.5-1.7-2.2l-1.5-0.8l0.1-0.7l12,2.2l-0.1,0.7l-1.3,0.1
	c-2.1,0.2-3.4,0.8-6.6,3.2l-8.8,7.1c2.3,7.7,5.4,15.2,9.1,22.4c0.4,0.9,1.2,1.7,2.1,2.1l0.8,0.4L339.6,686.1z M377.5,692l-11.1-1.7
	c-2.7-5.9-4.8-12-6.4-18.2c-0.8-0.1-1.8-0.3-2.9-0.6l-1.9,12.2c-0.5,3-0.3,3.2,1.5,4l1.6,0.6l-0.1,0.7l-16-2.5l0.1-0.7l1.8-0.1
	c2-0.1,2.2-0.2,2.7-3.3l4.2-27.2c0.5-3.1,0.2-3.3-1.6-4l-1.7-0.7l0.1-0.6l17,2.6c9.3,1.4,12.9,5,11.9,11.1c-0.8,4.9-3.6,7.2-8.7,7.9
	v0.2c1.6,4.8,4.4,12.8,6.5,16.7c0.8,1.6,1.4,2,2.2,2.3l0.9,0.4L377.5,692z M413.2,696.5l-16.5-2l0.1-0.7l1.4-0.2
	c1.7-0.2,2.2-0.8,2.3-2c0-1.3-0.1-2.6-0.4-3.9l-1.1-5.9l-10.5-1.3l-2.3,4.8c-0.7,1.3-1.3,2.7-1.5,4.2c-0.2,1.3,0.4,2,2.1,2.7
	l1.3,0.5l-0.1,0.7l-9.8-1.2l0.1-0.7l0.8-0.2c1.9-0.4,2.3-0.8,4.8-5.7l14.5-28.3l4.1,0.5l6.9,31.3c1,4.5,1.5,5.6,2.9,6.2l1,0.4
	L413.2,696.5z M434.3,662.5c-2,0.2-2.3,0.4-2.6,3.5l-2.7,27.3c-0.3,3,0,3.3,1.9,3.9l1.8,0.5l-0.1,0.7l-16.5-1.6l0.1-0.7l1.9-0.2
	c2-0.2,2.2-0.4,2.5-3.5l2.7-27.4c0.3-3,0-3.3-1.8-3.9l-1.9-0.6l0.1-0.7l16.5,1.6l-0.1,0.7L434.3,662.5z M473.4,665.6l-1.9,0.3
	c-1.8,0.3-2.2,1-2.5,4.3l-2.6,31.3l-2.6-0.2l-19.2-33.9h-0.2l-2.2,26.1c-0.3,3.7-0.1,4.2,2,4.9l1.9,0.6l0,0.7l-10-0.8l0-0.7l1.9-0.3
	c1.8-0.3,2.2-0.8,2.5-4.4l2.2-26.4c0.2-2.6-0.2-3.3-1.9-3.8l-1.7-0.5l0.1-0.7l12.2,1l14.2,25h0.2l1.5-17.8c0.3-3.7,0.1-4.2-2-4.9
	l-2-0.7l0-0.7l10.1,0.8L473.4,665.6z M502.9,703.6l-28.8-1.6v-0.7l1.8-0.3c1.9-0.3,2.2-0.6,2.4-3.6l1.6-27.5c0.2-3-0.1-3.3-2-3.8
	l-1.8-0.5v-0.6l27.7,1.6V677h-0.7c-0.7-2.1-1.6-4.2-2.6-6.2c-1.4-2.5-2.6-3-6.8-3.3c-1.7-0.1-3.5-0.1-5.2,0.1l-0.9,15.2l2.5,0.1
	c4.1,0.2,4.8-0.1,5.6-1.4c0.8-1.3,1.3-2.7,1.7-4.2h0.7l-0.8,13.6h-0.7c-0.2-1.5-0.6-3-1.2-4.5c-0.7-1.5-1.2-1.8-5.4-2.1l-2.5-0.1
	l-0.7,13c-0.2,3.6,0.1,4,5.4,4.3c4.8,0.3,5.5-0.3,7.3-2.6c1.6-2.4,3-4.9,4.1-7.6h0.8L502.9,703.6z M551.4,680.2
	c-1.2-3-2.4-5.9-3.3-7.7c-1.2-2.3-1.8-3.1-5.5-3.2h-1.6l-0.6,30.8c-0.1,2.9,0.2,3.3,2.4,3.7l1.9,0.4v0.7l-17-0.3V704l1.9-0.3
	c2.2-0.4,2.5-0.6,2.5-3.6l0.6-30.8h-1.5c-3.6-0.1-4.5,0.9-5.6,3c-1.4,2.4-2.6,4.9-3.6,7.5h-0.8l0.7-12l30,0.6l0.2,12.1L551.4,680.2z
	 M573.6,705.9c-9.4,0-17.4-5.9-17.4-18.6c0-14.1,9.2-19.5,17.7-19.5c9.4,0,17.4,5.7,17.4,18.8C591.3,700.6,582.1,705.8,573.6,705.9
	L573.6,705.9z M613,704.7l-17.4,0.5v-0.7l1.8-0.4c1.9-0.5,2.2-0.7,2.1-3.7l-0.8-27.5c-0.1-3-0.4-3.3-2.3-3.6l-1.8-0.3v-0.6l16.2-0.5
	c9.1-0.2,13.8,2.1,14,8.4c0.1,4.8-3,7.6-8.9,8.7v0.2c7.1,0.6,11.1,3.2,11.2,8.9C627.3,700.7,622.4,704.4,613,704.7L613,704.7z
	 M647.7,703.3v-0.7l1.3-0.4c1.6-0.5,2-1.2,2-2.3c-0.2-1.3-0.5-2.5-1-3.7l-2.1-5.7l-10.6,0.5l-1.5,5.1c-0.5,1.4-0.8,2.9-0.8,4.4
	c0.1,1.3,0.7,1.9,2.6,2.3l1.4,0.3v0.7l-9.8,0.5l0-0.7l0.8-0.3c1.8-0.7,2.1-1.2,3.8-6.4l9.4-30.3l4.1-0.2l12.2,29.7
	c1.8,4.3,2.4,5.3,4,5.6l1.1,0.2v0.7L647.7,703.3z M682.7,701.7c-10.2,0.7-17.8-4.7-18.7-17.5c-1-13.9,7.6-19.9,17.6-20.7
	c3.3-0.3,6.6-0.1,9.8,0.5l1.6,10.9l-0.8,0.1c-1.3-2.4-2.7-4.8-4.4-7c-1.8-2.6-3.3-3.3-6.5-3.1c-5.9,0.4-9.3,5.8-8.5,17.6
	c1,13.6,4.4,18.3,10.3,17.8c4-0.3,5.6-1.2,7.3-4.3c1-2,2.1-4.9,3.1-7.7l0.8-0.1l0.1,10.6C690.7,700.5,686.8,701.5,682.7,701.7
	L682.7,701.7z M717.8,698.6c-10.2,1-17.9-4.1-19.2-16.9c-1.4-13.9,6.9-20.2,16.9-21.2c3.3-0.4,6.6-0.3,9.8,0.2l1.9,10.8l-0.8,0.1
	c-1.4-2.4-2.9-4.7-4.6-6.8c-1.9-2.5-3.4-3.2-6.6-2.9c-5.9,0.6-9.1,6.2-7.9,17.9c1.4,13.5,5,18.1,10.9,17.5c4-0.4,5.6-1.4,7.2-4.6
	c0.9-2,1.9-4.9,2.8-7.8l0.8-0.1l0.4,10.6C725.7,697.2,721.8,698.3,717.8,698.6L717.8,698.6z M752.8,694.7c-9.3,1.2-18-3.7-19.6-16.3
	c-1.8-14,6.7-20.5,15.2-21.6c9.3-1.2,18,3.4,19.6,16.4C769.7,687.2,761.3,693.6,752.8,694.7L752.8,694.7z M787.3,689.4l-0.1-0.7
	l1.8-0.7c1.8-0.7,2.1-1,1.6-4l-4.4-27.2c-0.5-3-0.8-3.2-2.8-3.3l-2-0.1l-0.1-0.7l16.3-2.6l0.1,0.7l-1.8,0.7c-1.8,0.7-2.1,1-1.6,4
	l4.4,27.2c0.5,3,0.8,3.2,2.8,3.3l1.9,0.1l0.1,0.7L787.3,689.4z M834.7,681.6l-27.2-28h-0.2l4.5,25.8c0.6,3.6,0.9,4.1,3.2,4.3l2,0.1
	l0.1,0.7l-9.9,1.7l-0.1-0.7l1.8-0.8c1.7-0.7,1.9-1.4,1.3-4.9l-4.5-26.1c-0.5-2.6-1-3.1-2.8-3.2l-1.8-0.1l-0.1-0.7l12-2.1l20.1,20.6
	h0.2l-3-17.6c-0.6-3.6-1-4.1-3.2-4.3l-2.1-0.1l-0.1-0.7l10-1.7l0.1,0.7l-1.7,0.8c-1.7,0.7-1.9,1.5-1.3,4.8l5.4,30.9L834.7,681.6z
	 M861.7,676.8c-10,2-18.2-2.4-20.7-15c-2.7-13.7,5-20.7,14.8-22.7c3.2-0.7,6.5-0.9,9.8-0.7l2.9,10.6l-0.8,0.2
	c-1.6-2.2-3.3-4.4-5.2-6.4c-2.2-2.3-3.7-2.9-6.9-2.3c-5.8,1.2-8.5,7-6.2,18.5c2.7,13.3,6.7,17.5,12.5,16.4c4-0.8,5.5-1.9,6.7-5.3
	c0.8-2.6,1.5-5.3,2.1-8l0.7-0.2l1.4,10.5C869.4,674.6,865.7,676.1,861.7,676.8L861.7,676.8z M883.3,671.9c-2.1,0.5-4.2-0.8-4.7-3
	c0,0,0,0,0,0c-0.5-2.1,0.8-4.2,2.8-4.7c0.1,0,0.1,0,0.2,0c2.1-0.5,4.2,0.8,4.7,2.9c0,0,0,0.1,0,0.1
	C886.8,669.3,885.5,671.4,883.3,671.9L883.3,671.9z"/>
<path class="st2" d="M611,686.2l-3.6,0.1l0.4,13.4c0.1,3.2,1,3.7,4.7,3.6c4.3-0.1,6.2-2.8,6-9C618.3,688.2,616.3,686,611,686.2
	L611,686.2z"/>
<path class="st2" d="M395.7,665.5l-6.6,13.7l9.6,1.2l-2.8-14.8L395.7,665.5L395.7,665.5z"/>
<path class="st2" d="M721.2,105.8l28.2-85.7c-11.7,8.3-23.1,16.9-34.1,25.8c3.4,3.9,4.4,9.5,2.4,14.3c-3,8.1-11.9,13.1-20,11.5
	c-3-0.6-5.6-2.1-7.7-4.3c-5.8,5.2-11.5,10.5-17.2,15.9c-2.6-6.7-5.2-13.3-7.9-20c-2.8,1.4-6,1.9-9.1,1.6c-8.2-1-13.7-8.5-12.3-17
	c0.9-5.5,4.5-10.1,9.5-12.5c-5.2-11.8-10.8-23.6-16.6-35.3c-8.9,10.4-17.5,21-25.8,31.7c4.3,3.3,6.6,8.5,6,13.9
	c-0.8,8.4-7.9,14.8-16.4,14.7c-3.1-0.1-6-1.1-8.5-3c-4.3,6.1-8.5,12.3-12.7,18.5c-4.1-6.2-8.3-12.4-12.6-18.5
	c-2.4,1.9-5.4,2.9-8.5,3c-8.5,0.1-15.6-6.3-16.4-14.7c-0.6-5.4,1.7-10.6,6-13.9C539.5,21,530.9,10.4,522,0
	c-5.8,11.7-11.3,23.4-16.6,35.3c5,2.4,8.6,7,9.5,12.5c1.4,8.5-4.2,16-12.3,17c-3.1,0.4-6.3-0.2-9.1-1.6c-2.7,6.7-5.4,13.3-7.9,20
	c-5.6-5.4-11.3-10.7-17.1-15.9c-2,2.2-4.7,3.7-7.7,4.3c-8.1,1.6-16.9-3.4-20-11.5c-2-4.8-1-10.4,2.4-14.3
	c-11-8.9-22.4-17.5-34.2-25.8l28.6,85.7L721.2,105.8z"/>
<path class="st2" d="M721.2,116.5v18H437.6v-17.9C437.6,116.5,721.2,116.5,721.2,116.5z"/>
<path class="st2" d="M833.5,111.2c-0.5,0.1-1.9,9.6,10.2,8.4s18.2,4.7,18.2,4.7v0.9l-3.8-1c0,0-1.6,2.5,4.5,5.8v0.9
	c0,0-10.3-7-12-2.9c0,0,11.9,8.7-0.3,16.9c0,0,2.3,4.9,13.1,0.8v0.8c0,0-2.1,3-8.2,2.5c0,0,7.7,5.1,11.5,5.6l-0.4,0.9
	c-3.7,0.2-7.3-0.6-10.6-2.2c0,0,0.3,19.2,25.1,24.6v0.9c0,0-11.8,1.5-18-1.6c0,0-1.2,16,24.6,15.8v0.9c0,0-5,4.2-17.4,2.3
	c0,0,3.5,9.1,26.4,10.8v0.9c-4.8,0.6-9.7,0.7-14.5,0.1c0,0,3.2,8.1,19.8,3.7l25.7-7.2l-2.4-1.4c-12.7,1.5-25.2-6.7-26.2-12.5
	c0,0,11.1-0.3,24.6-20.1l-0.7-0.1c-5.1-1.7-25.7-8.7-34.4-38.6c0,0-5.2-14.7-4-17.5s11.2-2.7,14.2-6.4c1.8-2,2.2-4.8,1.2-7.3
	c0,0-13.7,3.6-12.7-14.7c0,0-5.9,0.8-6,5.7s-2.3,11.8-2.3,11.8l-1.2-0.4c0,0-4.2-3.2-2.7-8c3.3-10.1-0.2-11.9-0.2-11.9
	S863,98,855.1,80.5c0,0-7.5,4-2.7,12.7c4,7.3,8.9,14.2,14.6,20.3l-0.6,0.6c-7.1-2.6-12.7-8.2-15.4-15.3c-3.8-9.5-8.5-7.7-12.3-6.6
	C838.7,92.2,852.4,107.2,833.5,111.2z"/>
<path class="st2" d="M1143.6,213.5c2.1-22.2,20.7-28.6-0.3-64.2s-56.9-0.8-56.9-0.8l-0.6-0.6c0,0,9.4-15,23.6-17.7
	c0,0,8.3-19.9-17.1-32.1c0,0,6.1,16.1-1.2,22.4c-15.8,13.4-21.8,32.2-21.8,32.2l-0.8-0.4c0,0,1.2-8.2,5.8-13.7c0,0-7.8-6.8-20.3-1.1
	c0,0,9.5,3.5,9.5,10.2s-11.3,31.9-6.9,54.6l8.3,7.2v0.9c0,0-3.9-4.4-15.1-4.3c0,0-2.3,10,18.8,15.1v0.9c-6.5-1.8-13.2-2.9-19.9-3.3
	c0,0-2.7,14.4,23.4,11.8v0.9c0,0-12.9,2.6-24,0.6c0,0,5.8,10.7,26.1,12.4l0.1,0.9c0,0-15.9-2.8-22.4,0.2c0,0,1.9,9.8,26.5,10
	l-0.1,0.9c0,0-14.5-1.1-23.6,3.6c0,0,11.6,15.1,25.4,8.8c0,0,6.3-1.8,7.4-2v0.9c-4.3,1.2-8.2,3.9-10.8,7.6
	c-4.5,6.2-6.7,13.7,5.3,21.2c0,0,1-11.2,9.7-10s16.7,12.5,10,25s-11.1,14.7-19.5,15.5c0,0-3.4-19.5-32.6-34.9s-29.8-77.9-29.8-77.9
	s-8.8,6.3-12.2,15.9c-0.9,2.4-0.2,8.1-0.2,8.1s-8.6-1.4-13.7-6.8c-5.1,2.3-10.1,4.9-14.9,7.9c-6,3.8-11.7,10.4-11.7,10.4
	s-7-7-9.9-22.5c0,0-13.7,10.7-30.8,6.6c0,0-3-16.5,4.4-29l-100.6,29.9c0,0-4.1-1.7-4.2-7.8s-6.7-7.3-9.7-5.8c0,0,2.7,14.8-14.9,12.4
	c0,0-0.5,7.7,9.1,6.8c0,0,5,0.3,8,3s6.6-1.3,6.6-1.3h0.8c-2.5,3.4-6.2,5.7-10.4,6.4c-7,1.2-7.7-9.7-16.8-2.2c0,0,15,11.5-2.5,19.2
	c0,0,5,7.8,12.5,2.9s18-12.5,18.9-14.8l0.6,0.6c0,0-1.2,9.7-10.5,13.8c-10.3,4.6-10.2,6.3-9.7,14.4c0,0,7.4-6.7,12.9-4.6
	c3.9,1.3,6.4,5.2,6,9.3c0,0,8.3,1.3,8.9-7.3c0.3-4.4,0.4-8.7,0.1-13.1l4.8-9.7l0.8,0.3c0,1.8-0.4,3.5-1.2,5.1c0,0,3.8-1.5,7.4-8
	l0.8,0.3c0,0-5.7,9.6-5.6,13.3c0,0-0.2,1.2,1.3,2.2c0,0,3.8-5.5,8.5-5.5s8.2,5.5,8.2,5.5s2-0.6,1.7-3.8c-0.2-2.6-0.6-5.1-1.3-7.6
	c-0.3-0.9-1.3-3.6-1.3-3.6l0.7-0.5l5,8.3c0,0,1-5.2-1.2-9.5l0.8-0.1c0,0,6.8,8,4.3,14.8c0,0,18.8,0,20.2-19.4l0.8-0.1
	c0,0,5.3,14.5-14.4,27.2c0,0,30-5.5,33-27.8l0.8-0.1c-0.4,7.5-2.7,14.7-6.6,21.1c0,0,24,1.4,36.8-26.8h0.8c0,0-1.2,9.9-16.7,29.1
	c0,0,20.3,2,36.6-19.9l0.8,0.4c0,0-3.1,11.8-22.8,19.4c0,0,12,29.1,29.3,30.7c18.3,1.7,36.7,16.1,40.4,28.2
	c3.2,10.3,3.1,18.4-7.9,39.6l0.8,0.4c0,0,22.3-25,8.4-55.5l0.7-0.5c0,0,16.3,23.4-8.4,58.7c0,0-18.9,30.2-4.6,62.9
	c0,0,7.7-4,7.4-11.2c0,0-7.3-30.5,12.6-50l0.5,0.7c0,0-14.6,22.6-10,46.1s12.4,28.3,12.4,28.3s4-6.7,2.3-11.4s-7.8-14.7-7.2-25.4
	l0.8,0.1c0,0,0.3,22.5,22,33.5c0,0,0.3-18.1,12.4-18.9s19,19.4,16.1,36.5s-11.8,34.1-29.5,36.7c0,0,6.9-17-10.5-17.1
	c0,0,3.5,12.5-11.4,16.6c0,0-0.5,1.6,6.9,2.5c4.2,0.4,7.8,2.9,9.6,6.7c0,0,8.5,1.8,10.6,0.3l0.2,0.9c0,0-3.6,3.8-13.3,0.7
	s-13.8-11-23.8,1c0,0,13.8,10.5-1.5,21c0,0,3.2,10.8,18.7,4.8c0,0-2.2-13.3,10.7-16.6c7.7-2,15.2-5,22.1-9l0.8,0.4
	c-2.3,3.8-5.8,6.8-9.9,8.4c-6.6,2.3-20.7,2.5-20,16.4c0,0,0.2,2.6,3.8,5.5c0,0-1.1-16.8,14.4-10.7s2.2,16.3,2.2,16.3
	s11.6-0.5,10.3-14.3s14.8-15.7,14.8-15.7s-4.2,10.7,5.8,12.9c0,0-4.3-7.8,3-11.6s11.6,2.9,11.6,2.9s4.6-6.8-3.6-10.5
	c-7.4-3.3-5.1-10.4-4.5-11.7h0.8c0,0,2.7,6.7,13.2,5.2c0,0-5.7-8.9-4.5-26.1h0.8c0,0,0.2,15.8,15.2,19.1c0,0,2.6-19.4-10-42.2h0.9
	c0,0,12.2,23.2,19.8,22.2c0,0,5-21.2-14.7-42.3v-0.9c0,0,10.3,6.5,15,23.1c1.3,2.5,2.7,3.2,6.7,3.7c2.6-14.6-3.7-29.4-16-37.6
	c-21.3-14.8-36-17.5-36.8-39.5s14.1-19.3,10.4-50.1c0,0,28.1-0.4,32.3-22.6s0.8-38.8-13.5-58.6s-28.1-40.5-23.5-67.2
	s22.4-26.4,28.6-22.3c4.6,3,14.5,22-12.4,21.1c0,0-2.6,17.1,20.2,22.7c0,0-2.9-7.5,1.7-18.7h0.8c0,0-6.8,18.5,8.7,38.1
	s30.2,17.9,30.2,17.9C1147.9,239,1142.2,226.4,1143.6,213.5L1143.6,213.5z"/>
<path class="st2" d="M832.7,456.1c0,0,1.3,4.8,7.5,6.8c0,0,4.2-11.8,10.5-10.6c2.8,0.6,7.2,3.5,10.8,3.1s14.8-3.6,14.8-3.6
	s0.7,0.6,0.6,0.6c-4.4,3.8-9.8,6-15.6,6.5c-2.5-1.9-5.7-2.9-8.8-2.7c-5.7,0.6-8.9,8.3-8.9,8.3s7.1,0.6,9.5,5.8
	c1.7,3.7,2.2,7.7,1.6,11.7c0,0,5.2,2.9,11-2.1s5-10.3,5-10.3s9.9-4,11.6-6l0.7,0.5c-0.8,1.4-1.6,2.8-2.3,4.2
	c-0.3,0.8-3.7,2.1-2.3,9.3c0,0,0.2,0.8,2.8,2.8c0,0-1.9-5.6,5.7-8s11.3,4.3,10.6,7.8c0,0,6.4-2,2.8-9.5c-2.2-4.1-1.3-9.2,2.2-12.3
	h0.8c0,0,10.4,4.3,10,11.9c0,0,4.7-3.8,6.1-7.2s9-17.6,9.2-19.2l0.8,0.1c0,0-4.4,12.4-4.9,18.8c-0.1,4.5,0.5,9,1.8,13.3
	c0,0,10.3-9.1,12.8-16s5.5-24.2,5.5-24.2h0.8c0,0,1.4,13.7-2.3,25.3c0,0-0.3,2.8,2.5,10.2c0,0,12-6.3,15.8-18.7
	c0,0,2.2-10.8,1.6-17.1l0.8-0.2c1.6,3.8,2.4,7.9,2.2,12c-0.4,6.6-6,19.5-6,19.5s14.6-1.4,17.1-20.3s-5-23-5.1-43.6s4-27.1,26.5-33.1
	c0,0,13.1-20.6,8.5-36.2s-27.9-30.6-50.4-28.7c-26.3,2.2-69.4,6.9-80.2,68.7c0,0,9.7-2.1,14.4-9.3s13.6-23.1,28.5-30.5l0.5,0.8
	c0,0-34.1,23.7-30.3,61.4c0,0,8.8-2.8,9.4-9.3s-0.1-11.5,2.3-17.6l0.8,0c0,0-4.1,18.8,5,34.4c0,0,3.2-14.4,13.3-12.8
	s25.5,25.8-14.7,40.3c0,0-18.9,5.5-31.3-0.7c0,0,3.7-6.1,1.8-11.5s-12.5-5-12.5-5c1.6,2.9,1.5,6.4-0.3,9.2c-3.1,4.7-9.5,5.4-9.5,5.4
	c2.1,2.1,4.5,3.9,7.1,5.4c4.1,2.3,5.4,6.1,17.7,6.5l-0.1,0.9c0,0-6.5,2.2-17-0.9c0,0-7.9-15.7-22.8-4.3
	C839,436,850.9,447.1,832.7,456.1L832.7,456.1z"/>
<path class="st2" d="M838.8,420.4c8.1-2.2,9.4,1.1,12.7,3.4s9.2-0.5,9.5-6.3s-6.2-6.5-6.2-6.5C843.7,410.1,838.8,420.4,838.8,420.4
	L838.8,420.4z"/>
<path class="st2" d="M894.8,96.3c5,1.7,7.2-3.6,7.2-3.6c3.7-9.3-3.8-16.2-3.8-16.2c-0.2,7.5-3.5,7.8-6.3,10S889.8,94.6,894.8,96.3z"
	/>
<path class="st2" d="M803.6,229.3c2.5,2.6,8.3,1.1,9.4-4s-4.4-6.8-4.4-6.8c-9.7-2.6-15.7,5.6-15.7,5.6
	C800.5,223.6,801.1,226.8,803.6,229.3z"/>
<path class="st2" d="M797.6,261.7c3.6-0.1,6.5-5.3,3.5-9.6c-2.9-4.4-7.9-1.4-7.9-1.4c-8.5,5.2-6.6,15.3-6.6,15.3
	C791.3,260,794.1,261.8,797.6,261.7L797.6,261.7z"/>
<path class="st2" d="M816.3,280.4c-5.1,1.3-4,6.9-4,6.9c2,9.8,12,11.5,12,11.5c-3.9-6.5-1.3-8.4-0.2-11.8S821.4,279.2,816.3,280.4z"
	/>
<path class="st2" d="M859.3,80.3c0.2,3.8,5.8,6.7,10.3,3.4s1.2-8.4,1.2-8.4c-5.8-8.9-16.4-6.5-16.4-6.5
	C860.8,73.6,859.1,76.5,859.3,80.3z"/>
<path class="st2" d="M834,107.4c3.7,0.8,8-3.7,6.1-9s-7.8-3.5-7.8-3.5c-10.1,3.2-10.8,14-10.8,14C827.9,104,830.3,106.5,834,107.4
	L834,107.4z"/>
<path class="st2" d="M848.8,132.2c-2.9-0.2-5.2,1-8.8-4c0,0-2.1,8.1,4.6,12.8c0,0,3.9,2.6,6.5-0.8S851.7,132.4,848.8,132.2z"/>
<path class="st2" d="M857.5,274.7c0,0,1.9-4-1.6-6s-7.4,0.6-7.2,3.4s1.7,4.8-2.5,8.8C846.1,280.8,854,281.6,857.5,274.7z"/>
<path class="st2" d="M1014.7,495.3c3.2,2.3,9.2-0.5,9.5-6.3c0.2-5.8-6.2-6.5-6.2-6.5c-11.1-0.9-15.9,9.4-15.9,9.4
	C1010.1,489.7,1011.4,493,1014.7,495.3L1014.7,495.3z"/>
<path class="st2" d="M1001.9,529.8c3.9,0.4,7.9-4.9,5.3-10.1s-8.5-2.7-8.5-2.7c-10.2,4.5-9.5,15.8-9.5,15.8
	C995.2,527,998,529.3,1001.9,529.8L1001.9,529.8z"/>
<path class="st2" d="M1039.5,535.5c-6.1,0.8-5.7,7.2-5.7,7.2c0.8,11.1,12.2,14.2,12.2,14.2c-3.6-7.6-0.3-9.5,1.5-13
	S1045.6,534.7,1039.5,535.5z"/>
<path class="st2" d="M830.9,437c-10.9,2.1-12.8,13.3-12.8,13.3c7.2-4.3,9.3-1.4,13.1-0.1s8.8-3,7.4-8.6S830.9,437,830.9,437z"/>
<path class="st2" d="M837.8,471.4c-5.1,9.9,2.5,18.3,2.5,18.3c1-8.3,4.7-8.2,8-10.4s3.1-8.7-2.2-11.1S837.8,471.4,837.8,471.4z"/>
<path class="st2" d="M882.7,477.6c-1.3,3.8-0.3,7.2-8.2,10.2c0,0,10,5.4,18.4-1.9c0,0,4.8-4.3,1.2-8.9S884,473.8,882.7,477.6
	L882.7,477.6z"/>
<path class="st2" d="M1089.6,523c-5.3-2.5-10.5,1.5-10,5.4s2.9,6.7-2.9,12.8c0,0,11.3,0.5,15.7-9.8
	C1092.4,531.4,1094.8,525.5,1089.6,523L1089.6,523z"/>
<path class="st2" d="M923.5,130.3c11.8-3.7,20.8-6.8,25.5-5.5s9.3,4.3,13.7,4c0,0-11.3-10-24.2-8s-14.9,4.1-19.3,4.2
	c-3.4,0.1-6.7-1-9.4-3C909.8,121.9,911.8,134,923.5,130.3z"/>
<path class="st2" d="M939.5,97.5l1.8,2.4l-8.3,2.4l0.2,8.3c0,0,2.2,10.3,13,5.8s18.9-8.8,21.1-5.7s3.1,15.6-1.9,20.2
	c0,0-0.3,1.4-10.3-0.5s-14.7-2.8-17.5,2.8c0,0-1.5,2.4-0.3,7.9s0.3,8.4,1.1,10.4s1,3.3,4.1,4.8c0,0-3.1-7.2,7.2-11.1l11.4-4.3l2,6.9
	c6.6-6.5,10.1-15.5,9.7-24.8l0.7-0.1c0,0,1.2,13.7,0.9,16.5c0,0,10.5-5.2,7.2-20.8l0.7-0.2c0,0,1.7,2,3.7,9.5c0,0,7.1-7.6-2.2-26.9
	l0.5-0.4c0,0,6.8,4.6,7.4,15s-1.9,13.7-4.1,16.4c0,0-1.3-0.4-3.3-1.3c0,0-3.4,9.6-9.5,12.2l-2.9-1.7c0,0-1.8,5.3-10.6,10.4
	s-24,7.8-35.5,20c-2.3,2.5-3.9,6.3-8.4,10.7c-4.1,4-7.8,7.9-15.2,9.9c0,0,10.8,11.5,30.5,8.1c0,0,9.5-18.6,16.7-22.8l0.7,0.4
	c0,0-16.4,22-19.3,34.2c-3.6,15.3-2,19.7-2,19.7s13.1,3.4,27.7-7c0,0,0.3-24,15.3-38.8l0.8,0.6c0,0-16.3,21.1-12.9,38.2
	c2.7,13.2,5.8,19.1,7.4,21.6c7-7.5,15.7-13.1,25.3-16.4c0,0-7.5-19.4-4.2-32.3l0.8,0.1c0,0-2,34.8,16.4,38
	c-0.4-6.1,1.9-12.1,6.3-16.3c8.5-8.5,11-9.2,11-9.2s-14.6-17.4-16.7-38.4h0.7c0,0,11.4,35.3,26.1,41l14.5-32.9
	c0,0-18.2-5.1-24.6-19.9l0.6-0.6c0,0,10.3,15.8,26.6,16.6c0,0-4.4-7.4-2.8-24.1s-20.7-28.3-20.7-28.3l0.4-0.8c0,0,9.3,6,18.4,2.7
	c0,0-4.4-32.5-24.1-39l-8.8,7.3l-0.7-0.7c0,0,8.8-7.2,11.4-22.3c0,0-14.1-6.5-33.3,8.5l-0.6-0.6l2.9-3.8c0,0-21-5.2-35.3,6.6
	c-0.4,0.5-0.7,1.2-0.7,1.9c0.1,0.8,1.1,2.6-0.4,3.5s-24.7-0.8-23.8,4.7l0.9,9L939.5,97.5z M980.3,86l0.6,0.5
	c-0.8,0.6-4.3,8.1-10.1,8.7S959.3,91,959.3,91l-0.2-0.8L980.3,86z"/>
<path class="st2" d="M258.7,100.4c-1,2.5-0.5,5.3,1.2,7.3c3,3.7,13,3.6,14.2,6.4s-4,17.5-4,17.5c-8.7,29.9-29.4,36.9-34.4,38.6
	l-0.7,0.1c13.5,19.8,24.6,20.1,24.6,20.1c-1,5.8-13.6,14-26.2,12.5l-2.4,1.4l25.7,7.2c16.6,4.4,19.8-3.7,19.8-3.7
	c-4.8,0.5-9.7,0.5-14.5-0.1v-0.9c23-1.8,26.4-10.8,26.4-10.8c-12.4,1.9-17.3-2.3-17.3-2.3v-0.9c25.9,0.2,24.6-15.8,24.6-15.8
	c-6.3,3.2-18,1.6-18,1.6v-0.9c24.8-5.3,25.1-24.6,25.1-24.6c-3.3,1.7-6.9,2.4-10.6,2.2l-0.4-0.9c3.8-0.5,11.5-5.6,11.5-5.6
	c-6.1,0.4-8.2-2.5-8.2-2.5v-0.8c10.8,4.1,13.1-0.8,13.1-0.8c-12.2-8.2-0.3-16.9-0.3-16.9c-1.7-4.1-12,2.9-12,2.9v-0.9
	c6.1-3.2,4.5-5.8,4.5-5.8l-3.8,1v-0.9c0,0,6-5.8,18.1-4.7s10.7-8.3,10.2-8.4c-18.9-4-5.1-19-5.1-19c-3.8-1.1-8.6-2.9-12.4,6.6
	c-2.7,7.1-8.4,12.6-15.5,15.2l-0.6-0.6c5.7-6.2,10.6-13,14.6-20.3c4.8-8.7-2.7-12.7-2.7-12.7c-7.9,17.4-19.5,2.2-19.5,2.2
	s-3.5,1.8-0.2,11.9c1.6,4.8-2.7,8-2.7,8l-1.2,0.4c0,0-2.2-6.9-2.3-11.8s-6-5.7-6-5.7C272.4,103.9,258.7,100.4,258.7,100.4
	L258.7,100.4z"/>
<path class="st2" d="M86,519.3c0,0,16.1,1.9,14.8,15.7s10.3,14.3,10.3,14.3s-13.3-10.2,2.2-16.4s14.4,10.7,14.4,10.7
	c3.6-2.9,3.8-5.5,3.8-5.5c0.7-13.9-13.4-14.1-20-16.4c-4.1-1.6-7.6-4.6-9.9-8.4l0.8-0.4c6.9,4,14.3,7,22.1,9
	c12.9,3.3,10.7,16.6,10.7,16.6c15.5,6.1,18.7-4.8,18.7-4.8c-15.3-10.5-1.5-21-1.5-21c-10-12-14.1-4.1-23.8-1s-13.3-0.7-13.3-0.7
	l0.2-0.9c2.1,1.5,10.6-0.3,10.6-0.3c1.8-3.8,5.5-6.3,9.6-6.7c7.3-0.9,6.9-2.5,6.9-2.5c-14.9-4.1-11.4-16.6-11.4-16.6
	c-17.4,0.2-10.5,17.1-10.5,17.1c-17.7-2.6-26.6-19.5-29.5-36.7s4-37.4,16.1-36.5s12.4,18.9,12.4,18.9c21.7-11,22.1-33.5,22.1-33.5
	l0.8-0.1c0.6,10.7-5.4,20.6-7.2,25.4s2.3,11.4,2.3,11.4s7.7-4.8,12.4-28.3s-10-46.1-10-46.1l0.5-0.7c19.9,19.5,12.6,50,12.6,50
	c-0.3,7.2,7.4,11.2,7.4,11.2c14.2-32.7-4.6-62.9-4.6-62.9c-24.8-35.4-8.4-58.7-8.4-58.7l0.7,0.5c-13.9,30.6,8.4,55.5,8.4,55.5
	l0.7-0.4c-11-21.2-11.1-29.3-7.9-39.6c3.8-12.1,22.1-26.5,40.4-28.2c17.4-1.6,29.3-30.7,29.3-30.7c-19.8-7.6-22.8-19.4-22.8-19.4
	l0.8-0.4c16.3,21.9,36.6,19.9,36.6,19.9c-15.4-19.2-16.6-29.1-16.6-29.1h0.8c12.8,28.2,36.8,26.8,36.8,26.8
	c-3.9-6.4-6.2-13.6-6.6-21.1l0.9,0.1c3,22.3,33,27.8,33,27.8c-19.7-12.7-14.4-27.2-14.4-27.2l0.8,0.1c1.5,19.3,20.2,19.4,20.2,19.4
	c-2.5-6.8,4.3-14.8,4.3-14.8l0.8,0.1c-2.2,4.3-1.2,9.5-1.2,9.5l5-8.3l0.7,0.5c0,0-1,2.7-1.3,3.6c-0.7,2.5-1.1,5.1-1.3,7.6
	c-0.3,3.2,1.7,3.8,1.7,3.8s3.6-5.5,8.2-5.5s8.5,5.5,8.5,5.5c1.5-1,1.3-2.2,1.3-2.2c0.1-3.7-5.6-13.3-5.6-13.3l0.8-0.3
	c3.6,6.5,7.4,8,7.4,8c-0.7-1.6-1.1-3.3-1.2-5.1l0.8-0.3l4.8,9.7c-0.3,4.4-0.3,8.7,0.1,13.1c0.5,8.6,8.9,7.3,8.9,7.3
	c-0.4-4.1,2.1-8,6-9.3c5.5-2.1,12.9,4.6,12.9,4.6c0.5-8.1,0.6-9.7-9.7-14.4c-9.2-4.1-10.5-13.8-10.5-13.8l0.6-0.6
	c0.9,2.3,11.4,9.8,18.9,14.8s12.5-2.9,12.5-2.9c-17.5-7.7-2.5-19.2-2.5-19.2c-9-7.4-9.8,3.4-16.8,2.2c-4.2-0.7-7.9-3-10.4-6.4h0.8
	c0,0,3.6,4,6.6,1.3s8-3,8-3c9.6,1,9.1-6.8,9.1-6.8c-17.6,2.4-14.9-12.4-14.9-12.4c-3-1.5-9.6-0.2-9.7,5.8s-4.2,7.8-4.2,7.8
	l-100.7-29.8c7.3,12.5,4.4,29,4.4,29c-17.1,4.1-30.8-6.6-30.8-6.6c-2.9,15.6-9.9,22.5-9.9,22.5s-5.8-6.6-11.7-10.4
	c-4.8-3-9.8-5.6-14.9-7.9c-5,5.3-13.6,6.8-13.6,6.8s0.7-5.8-0.1-8.1c-3.4-9.6-12.2-15.9-12.2-15.9s-0.6,62.4-29.8,77.9
	S76,327.4,76,327.4c-8.4-0.8-12.8-3-19.5-15.5s1.3-23.8,10-25s9.7,10,9.7,10c12-7.4,9.8-15,5.3-21.2c-2.6-3.7-6.4-6.4-10.8-7.7v-0.9
	c1.2,0.1,7.5,2,7.5,2c13.8,6.3,25.4-8.8,25.4-8.8c-9.1-4.7-23.6-3.6-23.6-3.6l-0.1-0.9c24.6-0.2,26.5-10,26.5-10
	c-6.4-3.1-22.4-0.2-22.4-0.2l0.1-0.9c20.2-1.7,26.1-12.4,26.1-12.4c-11.1,1.9-23.9-0.6-23.9-0.6v-0.9c26.1,2.5,23.4-11.8,23.4-11.8
	c-6.7,0.4-13.4,1.5-19.9,3.3v-0.9c21.1-5.1,18.8-15.1,18.8-15.1c-11.2-0.1-15.1,4.3-15.1,4.3l-0.1-0.9l8.3-7.2
	c4.3-22.6-6.8-47.8-6.9-54.6s9.5-10.2,9.5-10.2c-12.5-5.7-20.3,1.1-20.3,1.1c4.6,5.5,5.8,13.7,5.8,13.7l-0.8,0.4
	c0,0-5.9-18.8-21.7-32.2c-7.4-6.3-1.2-22.4-1.2-22.4c-25.4,12.1-17.1,32.1-17.1,32.1C63.2,133,72.6,148,72.6,148l-0.6,0.6
	c0,0-35.9-34.8-56.9,0.8s-2.3,42-0.3,64.2c1.3,12.8-4.3,25.3-14.8,32.8c0,0,14.8,1.7,30.2-17.9s8.6-38.1,8.6-38.1h0.8
	c4.6,11.2,1.7,18.7,1.7,18.7c22.8-5.6,20.2-22.7,20.2-22.7c-26.8,0.9-17-18.1-12.4-21.1c6.2-4.1,23.9-4.4,28.6,22.3
	s-9.2,47.4-23.5,67.2s-17.7,36.4-13.5,58.6S73.1,336,73.1,336c-3.7,30.8,11.2,28,10.4,50.1S68,410.7,46.7,425.6
	c-12.3,8.2-18.6,23-16,37.6c4-0.5,5.4-1.2,6.7-3.7c4.6-16.6,15-23.1,15-23.1v0.9c-19.8,21.1-14.8,42.3-14.8,42.3
	c7.5,1,19.8-22.2,19.8-22.2h0.9c-12.6,22.8-10,42.2-10,42.2c15-3.3,15.2-19.1,15.2-19.1h0.8c1.2,17.2-4.5,26.1-4.5,26.1
	c10.4,1.4,13.2-5.2,13.2-5.2h0.8c0.6,1.3,2.9,8.4-4.5,11.7c-8.2,3.7-3.6,10.5-3.6,10.5s4.2-6.6,11.6-2.9s3,11.6,3,11.6
	C90.2,530,86,519.3,86,519.3z"/>
<path class="st2" d="M325.7,456.1c-18.2-9-6.3-20.2-6.3-20.2c-14.9-11.4-22.8,4.3-22.8,4.3c-10.5,3.1-17,0.9-17,0.9l-0.1-0.9
	c12.2-0.4,13.5-4.2,17.6-6.5c2.6-1.5,5-3.3,7.1-5.4c0,0-6.3-0.7-9.5-5.4c-1.8-2.7-2-6.3-0.3-9.2c0,0-10.5-0.4-12.5,5
	s1.8,11.5,1.8,11.5c-12.4,6.2-31.3,0.7-31.3,0.7c-40.2-14.5-24.8-38.6-14.7-40.3s13.3,12.8,13.3,12.8c9.2-15.6,5-34.4,5-34.4l0.8,0
	c2.4,6.1,1.8,11.1,2.3,17.6s9.4,9.3,9.4,9.3c3.7-37.7-30.3-61.4-30.3-61.4l0.5-0.8c14.9,7.4,23.8,23.2,28.5,30.5s14.4,9.3,14.4,9.3
	c-10.7-61.9-53.9-66.5-80.2-68.7c-22.4-1.9-45.6,13.1-50.2,28.7s8.5,36.2,8.5,36.2c22.6,6.1,26.6,12.6,26.5,33.1s-7.6,24.7-5.1,43.6
	s17.1,20.3,17.1,20.3s-5.6-12.9-6-19.5c-0.2-4.1,0.5-8.2,2.2-12l0.8,0.2c-0.6,6.3,1.6,17.1,1.6,17.1c3.8,12.4,15.8,18.7,15.8,18.7
	c2.8-7.4,2.5-10.2,2.5-10.2c-3.7-11.6-2.4-25.3-2.4-25.3h0.8c0,0,3,17.3,5.6,24.2s12.8,16,12.8,16c1.4-4.3,2-8.8,1.8-13.3
	c-0.5-6.4-4.9-18.8-4.9-18.8l0.8-0.1c0.2,1.6,7.7,15.9,9.2,19.2s6.1,7.2,6.1,7.2c-0.4-7.7,10-11.9,10-11.9h0.8
	c3.5,3.1,4.4,8.2,2.2,12.3c-3.6,7.5,2.8,9.5,2.8,9.5c-0.7-3.5,3.1-10.2,10.6-7.8s5.7,8,5.7,8c2.6-2,2.8-2.8,2.8-2.8
	c1.4-7.2-2-8.5-2.3-9.3c-0.7-1.5-1.5-2.9-2.3-4.2l0.7-0.5c1.7,2,11.6,6,11.6,6s-0.8,5.4,5,10.3s11,2.1,11,2.1c-0.6-4,0-8,1.6-11.7
	c2.4-5.2,9.5-5.8,9.5-5.8s-3.3-7.7-8.9-8.3c-3.2-0.2-6.3,0.8-8.8,2.7c-5.7-0.5-11.2-2.7-15.6-6.5c-0.1-0.1,0.6-0.6,0.6-0.6
	s11.1,3.3,14.8,3.6s8.1-2.5,10.8-3.1c6.2-1.2,10.5,10.6,10.5,10.6C324.4,460.9,325.7,456.2,325.7,456.1L325.7,456.1z"/>
<path class="st2" d="M297.5,417.5c0.2,5.8,6.2,8.6,9.5,6.3s4.6-5.6,12.6-3.4c0,0-4.8-10.3-15.9-9.4
	C303.6,411,297.2,411.6,297.5,417.5z"/>
<path class="st2" d="M263.6,96.3c5-1.7,5.8-7.6,3-9.8s-6.1-2.5-6.3-10c0,0-7.6,6.9-3.9,16.2C256.5,92.7,258.7,98,263.6,96.3
	L263.6,96.3z"/>
<path class="st2" d="M354.8,229.3c2.5-2.6,3.1-5.8,10.6-5.2c0,0-6-8.2-15.7-5.5c0,0-5.5,1.6-4.4,6.8S352.3,231.9,354.8,229.3
	L354.8,229.3z"/>
<path class="st2" d="M357.3,252.1c-3,4.4-0.1,9.5,3.5,9.6s6.3-1.7,11,4.2c0,0,2-10-6.6-15.3C365.2,250.7,360.2,247.7,357.3,252.1
	L357.3,252.1z"/>
<path class="st2" d="M342.1,280.4c-5.1-1.2-9,3.2-7.8,6.6s3.8,5.3-0.2,11.8c0,0,10.1-1.6,12-11.5
	C346.1,287.4,347.2,281.7,342.1,280.4z"/>
<path class="st2" d="M288.8,83.7c4.5,3.3,10.1,0.4,10.3-3.4s-1.6-6.8,4.9-11.5c0,0-10.6-2.4-16.4,6.5
	C287.6,75.3,284.3,80.5,288.8,83.7z"/>
<path class="st2" d="M318.3,98.4c-1.9,5.2,2.4,9.8,6.1,9s6.1-3.3,12.4,1.5c0,0-0.6-10.8-10.8-14C326.1,94.9,320.2,93.2,318.3,98.4z"
	/>
<path class="st2" d="M309.6,132.2c-2.9,0.2-5,4.6-2.4,8s6.5,0.8,6.5,0.8c6.7-4.7,4.6-12.8,4.6-12.8
	C314.8,133.2,312.5,131.9,309.6,132.2z"/>
<path class="st2" d="M302.5,268.6c-3.5,2-1.6,6-1.6,6c3.5,7,11.4,6.1,11.4,6.1c-4.3-4-2.7-6-2.5-8.8S306.1,266.7,302.5,268.6z"/>
<path class="st2" d="M140.4,482.5c0,0-6.4,0.6-6.2,6.5s6.2,8.6,9.5,6.3s4.6-5.6,12.6-3.4C156.4,491.9,151.5,481.6,140.4,482.5z"/>
<path class="st2" d="M159.7,517c0,0-5.9-2.5-8.5,2.7s1.3,10.5,5.3,10.1s6.7-2.8,12.7,3.1C169.2,532.9,169.9,521.5,159.7,517
	L159.7,517z"/>
<path class="st2" d="M124.6,542.6c0,0,0.4-6.4-5.7-7.2s-9.9,4.7-8,8.3s5.1,5.4,1.5,13C112.4,556.8,123.8,553.7,124.6,542.6z"/>
<path class="st2" d="M340.3,450.3c0,0-1.9-11.2-12.8-13.3c0,0-6.3-1.1-7.7,4.6s3.7,9.9,7.4,8.6S333.1,446,340.3,450.3L340.3,450.3z"
	/>
<path class="st2" d="M312.3,468.2c-5.3,2.4-5.5,9-2.2,11.1s7,2.1,8,10.4c0,0,7.6-8.4,2.5-18.3C320.6,471.4,317.6,465.8,312.3,468.2z
	"/>
<path class="st2" d="M275.7,477.6c-1.3-3.8-7.8-5.1-11.4-0.5s1.1,8.9,1.1,8.9c8.4,7.3,18.4,1.9,18.4,1.9
	C276,484.8,277,481.3,275.7,477.6L275.7,477.6z"/>
<path class="st2" d="M78.8,528.4c0.5-3.9-4.7-8-10-5.4s-2.8,8.5-2.8,8.5c4.3,10.2,15.7,9.8,15.7,9.8
	C75.9,535.1,78.3,532.3,78.8,528.4L78.8,528.4z"/>
<path class="st2" d="M195.6,128.7c4.4,0.3,9-2.8,13.7-4s13.8,1.8,25.5,5.5s13.7-8.3,13.7-8.3c-2.7,2-6,3.1-9.4,3
	c-4.4-0.1-6.3-2.2-19.3-4.2S195.6,128.7,195.6,128.7L195.6,128.7z"/>
<path class="st2" d="M135.2,159.1l0.6,0.6c-6.5,14.8-24.6,19.9-24.6,19.9l14.5,32.9c14.7-5.7,26.1-41,26.1-41h0.7
	c-2.1,21-16.7,38.4-16.7,38.4s2.5,0.8,11,9.2c4.4,4.2,6.7,10.2,6.3,16.3c18.4-3.2,16.4-38,16.4-38l0.8-0.1
	c3.3,12.8-4.2,32.3-4.2,32.3c9.7,3.3,18.4,9,25.4,16.4c1.6-2.5,4.8-8.4,7.4-21.6c3.4-17.1-12.9-38.2-12.9-38.2l0.9-0.6
	c15,14.8,15.3,38.8,15.3,38.8c14.6,10.5,27.7,7,27.7,7s1.6-4.4-2-19.7c-2.8-12.2-19.3-34.2-19.3-34.2l0.7-0.4
	c7.2,4.2,16.7,22.8,16.7,22.8c19.8,3.4,30.5-8.1,30.5-8.1c-7.4-2-11.1-5.9-15.2-9.9c-4.5-4.5-6-8.3-8.4-10.7
	c-11.5-12.2-26.7-14.8-35.5-20S186.6,141,186.6,141l-2.9,1.7c-6.1-2.6-9.4-12.2-9.4-12.2c-2,0.8-3.3,1.3-3.3,1.3
	c-2.2-2.7-4.8-6-4.1-16.4s7.4-15,7.4-15l0.5,0.4c-9.3,19.3-2.2,26.9-2.2,26.9c2-7.5,3.7-9.5,3.7-9.5l0.6,0.2
	c-3.4,15.6,7.2,20.8,7.2,20.8c-0.3-2.7,0.9-16.5,0.9-16.5l0.6,0.1c-0.4,9.3,3.2,18.3,9.8,24.8l2-6.9l11.3,4.3
	c10.3,4,7.2,11.2,7.2,11.2c3-1.5,3.3-2.8,4.1-4.8s-0.1-4.9,1.1-10.4s-0.3-7.9-0.3-7.9c-2.8-5.6-7.5-4.8-17.5-2.8s-10.4,0.5-10.4,0.5
	c-5.1-4.6-4.2-17.1-1.9-20.2s10.3,1.2,21.1,5.7s13-5.8,13-5.8l0.2-8.3l-8.3-2.4l1.8-2.4l7.1,2.7l0.9-9c0.9-5.5-22.3-3.8-23.8-4.7
	s-0.5-2.7-0.4-3.5s-0.7-1.9-0.7-1.9c-14.3-11.8-35.3-6.6-35.3-6.6l2.9,3.8l-0.6,0.6c-19.2-15.1-33.3-8.5-33.3-8.5
	c2.6,15.1,11.4,22.3,11.4,22.3l-0.7,0.7l-8.8-7.3c-19.7,6.4-24.1,39-24.1,39c9.1,3.3,18.4-2.7,18.4-2.7l0.4,0.8
	c0,0-22.2,11.5-20.7,28.3s-2.8,24.1-2.8,24.1C124.9,174.9,135.2,159.1,135.2,159.1L135.2,159.1z M178.1,86.1l21.1,4.2l-0.2,0.8
	c0,0-5.7,4.9-11.5,4.3s-9.2-8.2-10.1-8.7L178.1,86.1z"/>
</svg>
