<?xml version="1.0" encoding="UTF-8"?>
<svg data-bbox="0 0 546.26 341.512" viewBox="0 0 546.26 341.49" xmlns="http://www.w3.org/2000/svg" data-type="color">
    <g>
        <g>
            <path d="M354.41 181c0 76-81.28 108.15-81.28 108.15S191.85 257 191.85 181V77.35h162.56zM184.78 70v111.24c0 82.56 88.35 117.57 88.35 117.57s88.36-35 88.36-117.57V70z" fill="#df252c" data-color="1"/>
            <path d="M226.62 152.09h15.1v11.32c0 21.83 8.46 31.94 20.84 35.91v11.89c-19.42-3.21-35.94-16.91-35.94-44.39zm-8.83-1c-1.63 1.48-3.4 8-5.33 13.78l-3 8.74-1.33-39.11 8 4.16h112.35l9.18-4.62.44 39.12-4.29-11c-1.92-4.74-4.59-11.41-7.41-12.3a16.36 16.36 0 0 0-6.51-1h-39.28l.29 63.77c0 3.26-.29 5.63 1.78 8.3 1.48 1.92 10.07 4.15 13.63 6.22l3.12 1.9H247l3.55-2.19c3.45-1.92 11.45-4.14 13.45-6.66 1.92-2.52 2.07-4.89 2.07-8.15L266 149l-43.86.13c-1.78 0-2.82.9-4.3 1.94m43.34-35.6l-3.56 2.06c-3.7 2.07-12.59 4.15-14.07 6.07-1.93 2.52-1.78 5-1.78 8.3v3.83h-15.1v-5c0-2.52.59-4.89-1-7.11-2.07-2.52-9.92-4.15-13.92-6.22l-3.86-1.91zm77.33 0l-3.56 2.06c-3.55 2.07-12.44 4.15-14.07 6.07-1.93 2.52-2.07 4.89-2.07 8.15v4h-13.96v-4.28c0-2.67-.15-5.48-1.93-7.85-2.08-2.52-9.78-4.15-13.93-6.22l-3.85-1.91zm-19.7 49.25c0 28.11-15.82 42.28-35.27 46.08v-10.67c12.1-3.42 21.36-14 21.36-30v-18h13.91zM273.13 282.4s76.24-30.2 76.24-101.4V82.73H196.9V181c0 71.24 76.23 101.44 76.23 101.44" fill="#df252c" data-color="1"/>
            <path d="M328.48 138.66H216.17l-8-4.16 1.34 39.11 3-8.74c1.93-5.78 3.71-12.3 5.34-13.78 1.48-1 2.52-1.94 4.29-1.94L266 149l.14 63c0 3.26-.14 5.63-2.08 8.15s-10.07 4.74-13.48 6.67l-3.58 2.24h52.45l-3.13-1.9c-3.55-2.07-12.15-4.3-13.63-6.22-2.07-2.67-1.77-5-1.77-8.3l-.3-63.77h39.28a16.44 16.44 0 0 1 6.52 1c2.81.89 5.48 7.56 7.4 12.3l4.29 11-.46-39.17z" fill="#ffffff" data-color="2"/>
            <path d="M262.56 199.32c-12.38-4-20.84-14.08-20.84-35.91v-11.32h-15.1v14.73c0 27.48 16.52 41.18 35.94 44.39z" fill="#ffffff" data-color="2"/>
            <path d="M225.58 123.62c1.63 2.23 1 4.6 1 7.11v5h15.1v-3.82c0-3.26-.15-5.78 1.78-8.3 1.48-1.92 10.37-4 14.07-6.07l3.56-2.06H207.8l3.86 1.91c4 2.07 11.85 3.7 13.92 6.22" fill="#ffffff" data-color="2"/>
            <path d="M304.84 170.08c0 16.08-9.25 26.64-21.35 30v10.7c19.45-3.81 35.27-18 35.27-46.08v-12.61h-13.92z" fill="#ffffff" data-color="2"/>
            <path d="M289 117.4c4.15 2.07 11.85 3.7 13.93 6.22 1.77 2.37 1.92 5.18 1.92 7.85v4.28h13.92v-4c0-3.26.15-5.63 2.07-8.15 1.63-1.92 10.52-4 14.08-6.07l3.55-2.06h-53.33z" fill="#ffffff" data-color="2"/>
            <path d="M455.35 284.59l1.06-1a342.1 342.1 0 0 0 24.22-24.49c-4.32 1.09-14.22 3-36.69 7-23.23 4.17-54.68 9.81-58.67 12 .68.63 2.44 1.74 6.52 2 3.36.19 7.63.07 11.76 0 10.43-.3 17-.31 17.82 2.37l.07.14c.78 1.6 1.78 4.45 3.05 8.06 1.87 5.31 4.3 12.09 7.19 18.36 16-3.33 33.65-6.72 48.33-9.53 11.07-2.13 21-4.05 26-5.12-16.7-2.62-33.23-5.78-49.21-9.41z" fill="#9f9577" data-color="3"/>
            <path d="M419.75 282.61c-1.34-1.45-10.13-1.23-16.17-1.06-4.15.12-8.44.24-11.88 0a15.31 15.31 0 0 1-5.86-1.3l4.67 12.84c17.49-3.94 25.63-7.98 29.24-10.48z" fill="#9f9577" data-color="3"/>
            <path d="M121 290.61c1.27-3.61 2.28-6.46 3-8.06l.07-.15c.84-2.66 7.36-2.65 17.79-2.36 4.14.12 8.41.24 11.78 0 4.11-.22 5.87-1.34 6.54-2-3.87-2.28-35.26-8.41-58.43-12.92-21.12-4.12-31.37-6.18-35.92-7.41a339.92 339.92 0 0 0 24 24.4l1.06 1-1.4.32c-16 3.67-32.55 6.86-49.23 9.48 5.25 1.26 16.63 3.64 29.32 6.31 13.44 2.81 29.51 6.18 44.28 9.44 2.88-6.15 5.26-12.82 7.14-18.05z" fill="#9f9577" data-color="3"/>
            <path d="M141.84 281.55c-2.15-.06-4.67-.13-7.07-.13-4.3 0-8.23.23-9.12 1.15h.06c3.61 2.5 11.72 6.54 29.24 10.52l4.67-12.84a15.32 15.32 0 0 1-5.87 1.3c-3.43.24-7.75.11-11.91 0z" fill="#9f9577" data-color="3"/>
            <path d="M270.57 315.47c-2.82 0-4.18 2.26-4.19 8.1 0 6.19 1.42 8.64 4.17 8.64s4.15-2.21 4.16-8c.01-6.09-1.24-8.73-4.14-8.74z" fill="#9f9577" data-color="3"/>
            <path fill="#9f9577" d="M302.7 318.29l-1.99 6.87 4.55-.22-2.49-6.65h-.07z" data-color="3"/>
            <path d="M290.81 319.09c-.08-2.73-1-3.58-3-3.52a6.72 6.72 0 0 0-1.58.22l.2 7.17h1.46c2.11-.1 3-1.08 2.92-3.87z" fill="#9f9577" data-color="3"/>
            <path d="M171.5 308.35a8 8 0 0 0-1.8-.1l-1.18 7.75a5.25 5.25 0 0 0 1.27.3c2.12.33 3.44-.49 3.91-3.48s-.29-4.18-2.2-4.47z" fill="#9f9577" data-color="3"/>
            <path d="M352.91 310.33c-2.8.36-3.87 2.77-3.15 8.57.78 6.14 2.5 8.38 5.23 8s3.84-2.71 3.12-8.48c-.76-5.98-2.34-8.42-5.2-8.09z" fill="#9f9577" data-color="3"/>
            <path d="M430.49 310c-.11-.23-.22-.47-.32-.71-2.86-6.24-5.25-12.92-7.1-18.16-.92-2.61-1.68-4.76-2.32-6.36-.11-.26-.22-.55-.32-.78l-.13.08a52.78 52.78 0 0 1-11.11 5.29 154 154 0 0 1-18.25 5.21l-.75.16h-.23l-.51.11c-22 4.85-58 9.53-116.7 11.12h-.05c-58.7-1.55-94.7-6.23-116.7-11.08l-.53-.12h-.21l-.75-.16a153.27 153.27 0 0 1-18.21-5.2 52.29 52.29 0 0 1-11.16-5.31L125 284l-.31.78c-.64 1.6-1.41 3.76-2.33 6.35-1.82 5.18-7.52 19.1-7.63 19.33a56.06 56.06 0 0 1-7.05 11.74c135.79 25.75 182.65 25.75 330 0l-6.94-11.48c-.04-.26-.14-.5-.25-.72zm-289.18 4.65c-.68 3-2.85 5-7.12 4s-6.48-3-5.53-7.2l2.12-9.45c.31-1.4.19-1.53-.65-1.93l-.79-.36.07-.31 7.54 1.69-.08.32H136c-.92 0-1.1.08-1.41 1.46l-2.18 9.74c-.66 2.93.31 4.46 3.18 5.11s4.2-.68 4.84-3.52l2-9c.37-1.62.38-2-.59-2.43l-.95-.45.11-.32 4.8 1.08-.06.31h-.91c-.83 0-1.07.28-1.43 1.88zm9.77 7.22l-7.54-1.39.06-.32h.87c.92 0 1.07-.12 1.33-1.53l2.34-12.77c.26-1.41.15-1.54-.7-1.89l-.82-.31.06-.32 7.55 1.38-.06.33h-.8c-1 0-1.1.13-1.35 1.51l-2.34 12.76c-.25 1.38-.18 1.52.72 1.89l.74.32zm9.08 1.66l-5-.92a39.61 39.61 0 0 1-3.71-9.23l.06-.32 5.78-4.74a2.64 2.64 0 0 0 1-1.43c.08-.4-.2-.73-.78-1l-.73-.37.06-.31 5.64 1-.06.32h-.59c-1 .1-1.58.38-3.1 1.53l-4.17 3.36a61 61 0 0 0 4.27 10.58 1.85 1.85 0 0 0 1 1l.4.2zm17.84 2.78l-5.22-.8a51.8 51.8 0 0 1-3-8.57c-.38-.06-.87-.16-1.37-.26l-.88 5.75c-.22 1.39-.16 1.52.7 1.86l.77.3-.05.32-7.56-1.17.06-.32h.87c.92-.06 1.06-.12 1.28-1.56l2-12.83c.22-1.45.11-1.54-.75-1.88l-.82-.31v-.29l8 1.24c4.38.67 6.08 2.33 5.63 5.24-.35 2.29-1.71 3.38-4.11 3.75v.08a59.87 59.87 0 0 0 3.06 7.88c.38.77.64.94 1 1.1l.4.19zm16.83 2.1l-7.79-1v-.33l.64-.07c.8-.11 1-.4 1.11-.93a7.3 7.3 0 0 0-.18-1.82l-.54-2.81-5-.61-1.09 2.25a6.45 6.45 0 0 0-.73 2c-.07.6.17.94 1 1.27l.63.26v.31l-4.62-.56v-.33l.39-.07c.88-.17 1.09-.38 2.26-2.67l6.92-13.3 1.92.24L193 325c.47 2.14.69 2.65 1.39 2.94l.48.19zm9.94-16c-.92.11-1.08.19-1.22 1.63l-1.29 12.91c-.14 1.43 0 1.55.88 1.84l.86.26v.32l-7.76-.77v-.32l.92-.09c.92-.11 1.06-.2 1.2-1.63l1.29-12.91c.14-1.43 0-1.54-.86-1.84l-.88-.26v-.32l7.76.77v.32zm18.46 1.47l-.87.15c-.87.13-1 .47-1.18 2.05L220 330.79l-1.2-.1-9.08-16h-.08l-1 12.32c-.14 1.72-.06 2 1 2.32l.89.3v.33l-4.74-.4v-.32l.89-.15c.85-.14 1-.4 1.19-2.08l1-12.44c.1-1.23-.08-1.55-.89-1.81l-.78-.25v-.32l5.74.48 6.7 11.79h.08l.69-8.38c.15-1.72 0-2-.94-2.32l-1-.31v-.32l4.77.4zm13.89 18l-13.57-.88v-.32l.86-.13c.92-.15 1-.27 1.13-1.67l.74-13c.08-1.41 0-1.54-.93-1.79l-.85-.23v-.3l13.08.75v4.88h-.35a17.67 17.67 0 0 0-1.24-2.92c-.67-1.17-1.23-1.43-3.22-1.54a11.31 11.31 0 0 0-2.47.06l-.41 7.17 1.16.06c2 .11 2.27 0 2.63-.66a7.69 7.69 0 0 0 .79-2h.35l-.36 6.4h-.35a10.14 10.14 0 0 0-.56-2.1c-.32-.72-.58-.86-2.54-1l-1.16-.06-.35 6.13c-.09 1.68 0 1.89 2.56 2 2.26.13 2.58-.16 3.44-1.24a17 17 0 0 0 1.92-3.57h.38zM260 320.74c-.55-1.42-1.12-2.79-1.54-3.61-.58-1.06-.85-1.47-2.61-1.51h-.73l-.3 14.54c0 1.39.07 1.54 1.13 1.76l.87.19v.33l-8-.17v-.32l.88-.16c1-.18 1.16-.3 1.2-1.71l.29-14.55h-.73c-1.71 0-2.1.41-2.64 1.4a32.13 32.13 0 0 0-1.72 3.54h-.37l.34-5.68 14.17.29.1 5.69zm10.43 12.1c-4.43 0-8.2-2.78-8.19-8.79 0-6.65 4.34-9.21 8.37-9.2 4.43 0 8.2 2.67 8.19 8.84.03 6.7-4.3 9.15-8.33 9.15zm18.62-.54l-8.2.23v-.33l.85-.2c.9-.22 1-.33 1-1.76l-.37-13c0-1.44-.17-1.54-1.08-1.71l-.86-.15v-.3l7.62-.22c4.31-.11 6.53 1 6.61 3.95.06 2.29-1.41 3.57-4.21 4.12v.07c3.35.28 5.22 1.49 5.3 4.21.1 3.22-2.22 4.97-6.62 5.09zm16.37-.65v-.32l.62-.18c.78-.24 1-.58.93-1.11a6.85 6.85 0 0 0-.49-1.76l-1-2.67-5 .24-.69 2.4a6.54 6.54 0 0 0-.38 2.06c0 .61.33.89 1.22 1.08l.66.14v.33l-4.64.22v-.32l.37-.15c.84-.32 1-.55 1.77-3l4.44-14.29 1.94-.1 5.74 14c.83 2 1.13 2.49 1.86 2.66l.52.1v.32zm16.52-.76c-4.82.34-8.38-2.21-8.8-8.26-.46-6.56 3.58-9.41 8.3-9.74a16.57 16.57 0 0 1 4.61.26l.71 5.12h-.38a25 25 0 0 0-2.07-3.29 2.89 2.89 0 0 0-3.08-1.47c-2.78.19-4.4 2.75-4 8.3.45 6.4 2.06 8.61 4.87 8.41 1.91-.13 2.66-.56 3.44-2.05a38.09 38.09 0 0 0 1.47-3.61h.35v5a14.62 14.62 0 0 1-5.36 1.33zm16.52-1.46c-4.8.49-8.44-1.94-9.06-8-.67-6.54 3.27-9.52 8-10a16.58 16.58 0 0 1 4.61.1l.88 5.1h-.37a25.31 25.31 0 0 0-2.18-3.22 2.92 2.92 0 0 0-3.13-1.38c-2.77.29-4.31 2.9-3.74 8.44.66 6.38 2.35 8.54 5.15 8.24 1.9-.19 2.64-.65 3.37-2.16a38.1 38.1 0 0 0 1.35-3.66h.35l.2 5a14.81 14.81 0 0 1-5.39 1.54zm16.54-1.86c-4.4.55-8.48-1.72-9.23-7.69-.83-6.59 3.14-9.67 7.14-10.18 4.4-.55 8.47 1.63 9.24 7.75.85 6.64-3.15 9.62-7.15 10.12zm16.28-2.46v-.33l.86-.32c.87-.34 1-.46.74-1.88l-2.06-12.81c-.23-1.42-.37-1.5-1.3-1.56h-.92l-.05-.32 7.7-1.24.05.31-.84.32c-.87.34-1 .47-.77 1.89L376.7 322c.23 1.42.39 1.5 1.32 1.55h.9l.05.32zm22.35-3.69l-12.82-13.2h-.08l2.12 12.18c.29 1.71.44 1.94 1.52 2l.93.06.06.32-4.69.81-.05-.31.83-.38c.78-.34.91-.64.62-2.3l-2.14-12.3c-.21-1.22-.46-1.48-1.31-1.54h-.83v-.32l5.67-1 9.46 9.73h.07l-1.44-8.28c-.29-1.71-.45-1.91-1.49-2l-1-.06-.06-.32 4.71-.82.06.32-.81.37c-.81.35-.89.72-.62 2.28l2.53 14.58zm12.75-2.28c-4.74.94-8.58-1.13-9.77-7.08-1.28-6.44 2.36-9.78 7-10.71a16.83 16.83 0 0 1 4.61-.33l1.35 5-.37.07a25.87 25.87 0 0 0-2.47-3 2.91 2.91 0 0 0-3.24-1.08c-2.74.55-4 3.29-2.93 8.75 1.25 6.29 3.13 8.28 5.9 7.73 1.87-.37 2.57-.9 3.15-2.48a35.05 35.05 0 0 0 1-3.76l.35-.07.68 4.95a14.83 14.83 0 0 1-5.27 2.01zm10.2-2.29a1.87 1.87 0 0 1-2.23-1.41 1.84 1.84 0 0 1 1.41-2.23 1.87 1.87 0 0 1 2.25 1.41 1.89 1.89 0 0 1-1.44 2.23z" fill="#9f9577" data-color="3"/>
            <path d="M288.14 323.56l-1.71.05.17 6.32c0 1.51.48 1.75 2.2 1.7 2-.06 2.93-1.31 2.85-4.26s-1.02-3.87-3.51-3.81z" fill="#9f9577" data-color="3"/>
            <path fill="#9f9577" d="M186.62 313.8l-3.13 6.44 4.52.56-1.32-6.99-.07-.01z" data-color="3"/>
            <path d="M340.07 49.87l13.3-40.41q-8.3 5.86-16.08 12.17a6.5 6.5 0 0 1 1.13 6.74 8.59 8.59 0 0 1-9.42 5.41 6.56 6.56 0 0 1-3.61-2c-2.74 2.46-5.44 5-8.08 7.5q-1.82-4.72-3.73-9.44a7.57 7.57 0 0 1-4.3.74 6.81 6.81 0 0 1-5.82-8 8 8 0 0 1 4.5-5.89Q304.23 8.27 300.12 0q-6.3 7.35-12.12 15a7.26 7.26 0 0 1 2.85 6.53 7.64 7.64 0 0 1-7.73 6.94 7 7 0 0 1-4-1.42c-2 2.88-4 5.8-6 8.73-1.95-2.93-3.94-5.85-6-8.73a7 7 0 0 1-4 1.42 7.64 7.64 0 0 1-7.72-6.94 7.24 7.24 0 0 1 2.89-6.53q-5.85-7.64-12.14-15-4.15 8.27-7.84 16.64a8 8 0 0 1 4.5 5.89 6.8 6.8 0 0 1-5.81 8 7.6 7.6 0 0 1-4.31-.74q-1.92 4.71-3.72 9.44c-2.65-2.53-5.34-5-8.09-7.5a6.44 6.44 0 0 1-3.61 2 8.6 8.6 0 0 1-9.43-5.41 6.5 6.5 0 0 1 1.16-6.69q-7.78-6.3-16.09-12.17l13.49 40.41z" fill="#9f9577" data-color="3"/>
            <path fill="#9f9577" d="M340.07 54.93v8.46h-133.7v-8.46h133.7z" data-color="3"/>
            <path d="M393.06 52.46c-.23 0-.91 4.5 4.84 4s8.55 2.23 8.55 2.23v.4l-1.79-.45s-.74 1.18 2.15 2.71v.41s-4.85-3.29-5.67-1.36c0 0 5.62 4.11-.15 8 0 0 1.07 2.31 6.18.38v.4s-1 1.4-3.87 1.19c0 0 3.64 2.41 5.41 2.65l-.2.4a9.92 9.92 0 0 1-5-1s.15 9.07 11.83 11.58v.4s-5.55.72-8.51-.77c0 0-.59 7.54 11.61 7.44v.41s-2.33 2-8.15 1.08c0 0 1.63 4.28 12.45 5.11V98a28.47 28.47 0 0 1-6.84.05s1.53 3.81 9.36 1.74l12.11-3.41-1.12-.68c-6 .71-11.86-3.17-12.36-5.9 0 0 5.22-.15 11.59-9.47l-.33-.08c-2.39-.78-12.13-4.09-16.24-18.18 0 0-2.47-7-1.91-8.27s5.27-1.27 6.69-3a3.3 3.3 0 0 0 .58-3.44s-6.46 1.68-6-7c0 0-2.81.36-2.85 2.69a24.93 24.93 0 0 1-1.08 5.58l-.55-.21a3.57 3.57 0 0 1-1.26-3.79c1.55-4.75-.09-5.61-.09-5.61S407 46.2 403.24 38c0 0-3.52 1.88-1.27 6a50.69 50.69 0 0 0 6.89 9.59l-.28.28a12.35 12.35 0 0 1-7.27-7.23c-1.79-4.49-4-3.63-5.83-3.13 0-.03 6.52 7.05-2.42 8.95z" fill="#9f9577" data-color="3"/>
            <path d="M539.27 100.7c1-10.48 9.78-13.5-.12-30.28s-26.82-.37-26.82-.37l-.28-.28s4.42-7.07 11.15-8.34c0 0 3.93-9.4-8.05-15.11 0 0 2.89 7.6-.59 10.55a36.91 36.91 0 0 0-10.26 15.18l-.35-.18a15.06 15.06 0 0 1 2.75-6.46s-3.7-3.21-9.58-.53c0 0 4.5 1.63 4.46 4.83s-5.31 15.05-3.27 25.73l3.91 3.42v.43s-1.85-2.09-7.12-2c0 0-1.09 4.7 8.84 7.13v.41a47.31 47.31 0 0 0-9.39-1.56s-1.27 6.78 11 5.58v.42a35.62 35.62 0 0 1-11.29.3s2.76 5 12.3 5.85v.42s-7.52-1.33-10.55.11c0 0 .89 4.64 12.47 4.73l-.05.44s-6.86-.51-11.13 1.7c0 0 5.48 7.13 12 4.15 0 0 3-.87 3.52-.94v.41a9.39 9.39 0 0 0-5.09 3.57c-2.11 2.92-3.15 6.48 2.49 10 0 0 .49-5.26 4.59-4.7s7.89 5.9 4.72 11.8-5.22 7-9.19 7.33c0 0-1.63-9.19-15.38-16.46s-14-36.71-14-36.71a18 18 0 0 0-5.76 7.47 12.15 12.15 0 0 0-.07 3.85s-4.06-.69-6.44-3.19a58.35 58.35 0 0 0-7 3.72 30.49 30.49 0 0 0-5.49 4.88s-3.31-3.3-4.66-10.62c0 0-6.45 5-14.52 3.11 0 0-1.39-7.8 2.07-13.68l-47.46 14.07a3.83 3.83 0 0 1-2-3.68c0-2.86-3.18-3.46-4.58-2.75 0 0 1.28 6.95-7 5.83 0 0-.24 3.64 4.3 3.18a7.17 7.17 0 0 1 3.76 1.43c1.41 1.28 3.13-.59 3.13-.59h.4a7.84 7.84 0 0 1-4.91 3c-3.3.58-3.65-4.55-7.9-1 0 0 7.08 5.4-1.19 9 0 0 2.36 3.69 5.88 1.38s8.48-5.88 8.9-7l.28.28a8.89 8.89 0 0 1-4.95 6.52c-4.87 2.19-4.83 3-4.59 6.78 0 0 3.48-3.16 6.09-2.15a4.14 4.14 0 0 1 2.82 4.37s3.94.6 4.19-3.44a44 44 0 0 0 0-6.18l2.26-4.56.38.15a5.9 5.9 0 0 1-.56 2.4s1.8-.71 3.48-3.79l.37.16s-2.68 4.53-2.66 6.27c0 0-.1.55.61 1 0 0 1.82-2.58 4-2.56s3.88 2.59 3.88 2.59.93-.27.81-1.77a18.65 18.65 0 0 0-.61-3.6c-.13-.44-.62-1.71-.62-1.71l.33-.22 2.34 3.9a7.91 7.91 0 0 0-.59-4.47l.39-.06s3.19 3.78 2 7c0 0 8.84 0 9.55-9.14h.39s2.51 6.81-6.78 12.81c0 0 14.13-2.61 15.55-13.13h.4a21.6 21.6 0 0 1-3.12 10s11.32.64 17.36-12.66h.4s-.59 4.69-7.86 13.72c0 0 9.57.93 17.28-9.38l.35.18s-1.45 5.57-10.77 9.16c0 0 5.64 13.72 13.83 14.48 8.63.81 17.28 7.61 19.06 13.32 1.52 4.87 1.48 8.66-3.73 18.67l.36.2s10.5-11.79 4-26.2l.33-.21s7.7 11-4 27.7c0 0-8.9 14.24-2.18 29.65 0 0 3.61-1.89 3.48-5.29 0 0-3.43-14.38 5.93-23.56l.22.34s-6.9 10.66-4.73 21.72 5.83 13.33 5.83 13.33 1.9-3.15 1.09-5.39S478.71 200 479 195l.4.07a19.14 19.14 0 0 0 10.42 15.79s.13-8.52 5.84-8.9 9 9.13 7.6 17.23-5.58 16.09-13.91 17.31c0 0 3.27-8-5-8.09 0 0 1.64 5.89-5.39 7.83 0 0-.21.74 3.25 1.15a5.59 5.59 0 0 1 4.55 3.17s4 .85 5 .15l.12.41s-1.72 1.77-6.29.3-6.48-5.17-11.21.48c0 0 6.5 5-.72 9.89 0 0 1.53 5.12 8.83 2.26 0 0-1-6.28 5-7.83A40.46 40.46 0 0 0 498 241.9l.36.19a9.33 9.33 0 0 1-4.66 3.95c-3.11 1.1-9.77 1.17-9.42 7.74a4.26 4.26 0 0 0 1.79 2.61s-.51-7.92 6.8-5 1.05 7.7 1.05 7.7 5.47-.22 4.86-6.75 7-7.42 7-7.42-2 5 2.72 6.09c0 0-2-3.69 1.41-5.48a4.11 4.11 0 0 1 5.45 1.35s2.15-3.2-1.72-4.93a4 4 0 0 1-2.12-5.51h.4s1.28 3.14 6.21 2.47c0 0-2.67-4.2-2.11-12.3h.38s.12 7.45 7.18 9c0 0 1.25-9.13-4.72-19.89h.41s5.76 10.92 9.31 10.47c0 0 2.34-10-6.95-20v-.41s4.88 3.05 7 10.87c.61 1.2 1.26 1.51 3.16 1.76a17.58 17.58 0 0 0-7.55-17.73c-10-7-17-8.24-17.35-18.63s6.66-9.1 4.91-23.6c0 0 13.26-.19 15.23-10.67s.38-18.31-6.37-27.62-13.27-19.1-11.07-31.69S520.16 76 523.08 77.94c2.17 1.43 6.82 10.4-5.83 10 0 0-1.25 8.09 9.5 10.72 0 0-1.38-3.55.79-8.83h.4s-3.2 8.72 4.08 18 14.24 8.44 14.24 8.44a16.83 16.83 0 0 1-6.99-15.57z" fill="#9f9577" data-color="3"/>
            <path d="M392.67 215.1a5.16 5.16 0 0 0 3.53 3.2s2-5.57 4.93-5c1.31.26 3.38 1.64 5.11 1.46a69.39 69.39 0 0 0 7-1.72s.33.27.29.3a12.87 12.87 0 0 1-7.34 3.07 6.15 6.15 0 0 0-4.16-1.28c-2.67.28-4.21 3.91-4.21 3.91s3.36.27 4.47 2.72a9.69 9.69 0 0 1 .77 5.51s2.43 1.35 5.18-1 2.35-4.86 2.35-4.86 4.67-1.92 5.48-2.85l.31.25s-1 1.61-1.09 2-1.74 1-1.07 4.37c0 0 .08.36 1.3 1.31 0 0-.88-2.63 2.69-3.78a3.64 3.64 0 0 1 5 3.67s3-1 1.32-4.5a4.77 4.77 0 0 1 1-5.81h.47s4.9 2 4.7 5.63a12.17 12.17 0 0 0 2.88-3.39c.68-1.59 4.24-8.32 4.34-9.07h.38s-2.08 5.85-2.3 8.89a18.58 18.58 0 0 0 .86 6.26s4.87-4.28 6.06-7.53 2.61-11.39 2.61-11.39h.4a34.19 34.19 0 0 1-1.11 11.92s-.14 1.33 1.2 4.81c0 0 5.67-3 7.44-8.82a36.79 36.79 0 0 0 .74-8.06l.39-.1a12.72 12.72 0 0 1 1 5.65c-.2 3.1-2.85 9.17-2.85 9.17s6.89-.65 8.08-9.57-2.35-10.86-2.42-20.55 1.86-12.76 12.5-15.62c0 0 6.18-9.72 4-17s-13.11-14.42-23.71-13.52c-12.4 1-32.75 3.22-37.8 32.41 0 0 4.59-1 6.8-4.4s6.42-10.88 13.44-14.37l.25.36s-16.06 11.17-14.3 29c0 0 4.18-1.34 4.43-4.4s0-5.41 1.08-8.3h.39s-2 8.86 2.37 16.22c0 0 1.52-6.81 6.28-6s12 12.14-6.94 19c0 0-8.92 2.61-14.75-.33 0 0 1.76-2.89.83-5.45s-5.88-2.36-5.88-2.36a4.12 4.12 0 0 1-.16 4.32 6.72 6.72 0 0 1-4.45 2.56 15.46 15.46 0 0 0 3.33 2.53c1.94 1.08 2.54 2.89 8.32 3.07v.4s-3.05 1.05-8-.41c0 0-3.74-7.39-10.76-2-.05-.05 5.6 5.21-3 9.47z" fill="#9f9577" data-color="3"/>
            <path d="M395.56 198.23c3.82-1 4.44.54 6 1.61s4.36-.23 4.46-3-2.91-3-2.91-3c-5.26-.45-7.55 4.39-7.55 4.39z" fill="#9f9577" data-color="3"/>
            <path d="M421.94 45.41c2.34.81 3.38-1.7 3.38-1.7 1.75-4.39-1.81-7.63-1.81-7.63-.1 3.56-1.63 3.67-2.95 4.71s-.95 3.81 1.38 4.62z" fill="#9f9577" data-color="3"/>
            <path d="M379 108.15c1.17 1.2 3.89.54 4.45-1.87s-2-3.19-2-3.19c-4.55-1.27-7.39 2.62-7.39 2.62 3.44-.28 3.72 1.23 4.94 2.44z" fill="#9f9577" data-color="3"/>
            <path d="M376.14 123.4c1.68 0 3-2.49 1.65-4.54s-3.73-.66-3.73-.66c-4 2.47-3.11 7.2-3.11 7.2 2.21-2.78 3.5-1.97 5.19-2z" fill="#9f9577" data-color="3"/>
            <path d="M385 132.23c-2.4.6-1.91 3.28-1.91 3.28.93 4.63 5.68 5.41 5.68 5.41-1.86-3-.64-4-.09-5.56s-1.32-3.72-3.68-3.13z" fill="#9f9577" data-color="3"/>
            <path d="M405.2 37.88c.1 1.78 2.74 3.15 4.87 1.6s.57-4 .57-4c-2.75-4.18-7.73-3.06-7.73-3.06 3.03 2.27 2.2 3.67 2.29 5.46z" fill="#9f9577" data-color="3"/>
            <path d="M393.27 50.63c1.74.4 3.78-1.76 2.88-4.23s-3.67-1.65-3.67-1.65c-4.78 1.49-5.07 6.6-5.07 6.6 3-2.3 4.11-1.12 5.86-.72z" fill="#9f9577" data-color="3"/>
            <path d="M400.26 62.33c-1.37-.12-2.46.49-4.12-1.9 0 0-1 3.81 2.17 6 0 0 1.84 1.25 3.07-.35s.25-3.64-1.12-3.75z" fill="#9f9577" data-color="3"/>
            <path d="M404.36 129.53s.92-1.91-.76-2.85-3.48.29-3.4 1.59.81 2.25-1.2 4.15a5.57 5.57 0 0 0 5.36-2.89z" fill="#9f9577" data-color="3"/>
            <path d="M478.48 233.57c1.54 1.07 4.37-.23 4.47-3s-2.91-3-2.91-3c-5.24-.42-7.52 4.42-7.52 4.42 3.81-1.07 4.48.51 5.96 1.58z" fill="#9f9577" data-color="3"/>
            <path d="M472.47 249.83c1.85.2 3.71-2.3 2.48-4.76s-4-1.27-4-1.27c-4.8 2.13-4.48 7.48-4.48 7.48 2.83-2.76 4.14-1.66 6-1.45z" fill="#9f9577" data-color="3"/>
            <path d="M490.19 252.51c-2.86.35-2.69 3.38-2.69 3.38.38 5.24 5.75 6.69 5.75 6.69-1.69-3.59-.13-4.47.73-6.16s-.93-4.27-3.79-3.91z" fill="#9f9577" data-color="3"/>
            <path d="M391.83 206.09c-5.15 1-6.05 6.27-6.05 6.27 3.39-2 4.42-.68 6.18-.06s4.14-1.39 3.5-4.07-3.63-2.14-3.63-2.14z" fill="#9f9577" data-color="3"/>
            <path d="M395.06 222.32c-2.4 4.66 1.2 8.62 1.2 8.62.48-3.91 2.19-3.88 3.77-4.89s1.46-4.11-1-5.26-3.97 1.53-3.97 1.53z" fill="#9f9577" data-color="3"/>
            <path d="M416.25 225.21c-.6 1.77-.16 3.42-3.85 4.83 0 0 4.7 2.55 8.67-.9 0 0 2.25-2 .54-4.17s-4.76-1.53-5.36.24z" fill="#9f9577" data-color="3"/>
            <path d="M513.81 246.61c-2.48-1.18-4.94.72-4.71 2.57s1.35 3.15-1.35 6c0 0 5.35.23 7.4-4.6 0 .03 1.14-2.78-1.34-3.97z" fill="#9f9577" data-color="3"/>
            <path d="M435.51 61.43c5.54-1.76 9.82-3.18 12-2.61s4.39 2 6.47 1.89c0 0-5.32-4.72-11.43-3.77s-7 2-9.1 2a7.08 7.08 0 0 1-4.45-1.4s1 5.65 6.51 3.89z" fill="#9f9577" data-color="3"/>
            <path d="M443 46l.84 1.12-3.94 1.12.1 3.93s1 4.87 6.14 2.75 8.9-4.12 10-2.67 1.48 7.35-.92 9.51c0 0-.15.68-4.88-.26s-6.94-1.33-8.25 1.31c0 0-.73 1.15-.15 3.71s.14 4 .53 4.88a3.2 3.2 0 0 0 1.93 2.26s-1.46-3.38 3.41-5.21l5.35-2 .93 3.28a15.6 15.6 0 0 0 4.6-11.7l.31-.06s.59 6.49.43 7.76c0 0 5-2.43 3.39-9.8l.31-.09s.82.93 1.76 4.48c0 0 3.35-3.59-1.05-12.71l.26-.2a9.36 9.36 0 0 1 3.49 7.06c.3 4.89-.9 6.45-1.95 7.74 0 0-.6-.22-1.53-.6 0 0-1.61 4.54-4.46 5.75l-1.37-.81s-.85 2.49-5 4.92-11.28 3.63-16.76 9.38c-1.1 1.16-1.83 3-3.94 5.05-1.92 1.91-3.67 3.73-7.18 4.67 0 0 5.09 5.43 14.41 3.81 0 0 4.5-8.78 7.89-10.75l.31.16s-7.75 10.39-9.08 16.14c-1.68 7.22-.95 9.27-.95 9.27s6.2 1.61 13.08-3.32c0 0 .12-11.34 7.2-18.32l.4.3s-7.7 10-6.08 18c1.25 6.22 2.75 9 3.5 10.18A29.73 29.73 0 0 1 468 108.3s-3.55-9.17-2-15.22l.37.06s-.94 16.4 7.73 17.92a9.81 9.81 0 0 1 2.95-7.7c4-4 5.19-4.36 5.19-4.36s-6.86-8.2-7.86-18.11h.31s5.35 16.65 12.29 19.34l6.84-15.52s-8.57-2.43-11.62-9.41l.28-.28s4.87 7.45 12.54 7.84c0 0-2.06-3.47-1.33-11.38S484 58.12 484 58.12l.17-.39s4.38 2.83 8.69 1.27c0 0-2.08-15.35-11.37-18.38l-4.14 3.43-.35-.35s4.12-3.38 5.36-10.51c0 0-6.65-3.08-15.69 4l-.3-.27 1.35-1.78s-9.93-2.45-16.66 3.09c0 0-.41.51-.35.88s.53 1.22-.19 1.64-11.65-.37-11.24 2.21l.43 4.23zm19.23-5.4l.28.26c-.4.26-2 3.81-4.76 4.12s-5.41-2-5.41-2l-.09-.39z" fill="#9f9577" data-color="3"/>
            <path d="M122 47.33a3.3 3.3 0 0 0 .58 3.44c1.41 1.75 6.13 1.7 6.68 3s-1.9 8.27-1.9 8.27c-4.11 14.09-13.86 17.4-16.24 18.18l-.33.08c6.37 9.32 11.58 9.47 11.58 9.47-.49 2.73-6.4 6.61-12.36 5.9l-1.12.68L121 99.78c7.83 2.07 9.36-1.74 9.36-1.74a28.41 28.41 0 0 1-6.83-.05v-.41c10.83-.83 12.46-5.11 12.46-5.11-5.83.89-8.16-1.08-8.16-1.08V91c12.21.1 11.62-7.44 11.62-7.44-3 1.49-8.51.77-8.51.77v-.4c11.68-2.51 11.82-11.58 11.82-11.58a9.88 9.88 0 0 1-5 1l-.21-.4c1.77-.24 5.42-2.65 5.42-2.65-2.88.21-3.88-1.19-3.88-1.19v-.4c5.11 1.93 6.18-.38 6.18-.38-5.77-3.86-.15-8-.15-8-.82-1.93-5.66 1.36-5.66 1.36v-.41c2.88-1.53 2.14-2.71 2.14-2.71l-1.79.45v-.4s2.81-2.76 8.56-2.23 5.06-3.93 4.83-4c-8.91-1.9-2.42-9-2.42-9-1.81-.5-4-1.36-5.82 3.13a12.38 12.38 0 0 1-7.28 7.23l-.28-.28a50.14 50.14 0 0 0 6.89-9.47c2.25-4.11-1.27-6-1.27-6-3.7 8.22-9.18 1.05-9.18 1.05s-1.64.86-.09 5.61a3.59 3.59 0 0 1-1.26 3.79l-.56.21a25.16 25.16 0 0 1-1.07-5.58c-.05-2.33-2.85-2.69-2.85-2.69.45 8.61-6.01 6.94-6.01 6.94z" fill="#9f9577" data-color="3"/>
            <path d="M40.54 244.89s7.59.88 7 7.42 4.86 6.75 4.86 6.75-6.26-4.81 1-7.7 6.8 5 6.8 5a4.31 4.31 0 0 0 1.8-2.61c.35-6.57-6.32-6.64-9.42-7.74a9.38 9.38 0 0 1-4.58-3.92l.37-.19a40.49 40.49 0 0 0 10.4 4.27c6.08 1.55 5 7.83 5 7.83 7.3 2.86 8.83-2.26 8.83-2.26-7.22-4.92-.72-9.89-.72-9.89-4.72-5.65-6.64-1.95-11.21-.48s-6.29-.3-6.29-.3l.12-.41c1 .7 5-.15 5-.15a5.59 5.59 0 0 1 4.5-3.17c3.47-.41 3.25-1.15 3.25-1.15-7-1.94-5.38-7.83-5.38-7.83-8.24.09-5 8.09-5 8.09-8.34-1.22-12.53-9.22-13.91-17.31s1.89-17.62 7.59-17.23 5.84 8.9 5.84 8.9A19.14 19.14 0 0 0 66.89 195l.39-.07c.28 5-2.56 9.74-3.38 12s1.1 5.38 1.1 5.38S68.63 210 70.81 199s-4.72-21.72-4.72-21.72l.21-.34c9.36 9.18 5.93 23.56 5.93 23.56-.13 3.4 3.49 5.29 3.49 5.29 6.72-15.41-2.18-29.65-2.18-29.65-11.68-16.68-4-27.7-4-27.7l.34.21c-6.53 14.41 4 26.2 4 26.2l.35-.2C69 164.62 69 160.83 70.49 156c1.79-5.71 10.43-12.51 19.07-13.32 8.18-.76 13.82-14.48 13.82-14.48-9.32-3.63-10.76-9.2-10.76-9.2l.35-.18c7.7 10.31 17.27 9.38 17.27 9.38-7.27-9-7.85-13.72-7.85-13.72h.39c6 13.3 17.37 12.66 17.37 12.66a21.6 21.6 0 0 1-3.12-10h.4c1.41 10.52 15.54 13.13 15.54 13.13-9.28-6-6.78-12.81-6.78-12.81h.4c.7 9.12 9.54 9.14 9.54 9.14-1.17-3.22 2-7 2-7l.4.06a7.91 7.91 0 0 0-.59 4.47l2.34-3.9.33.22s-.5 1.27-.62 1.71a17.22 17.22 0 0 0-.61 3.6c-.13 1.5.81 1.77.81 1.77s1.69-2.58 3.87-2.59 4 2.56 4 2.56c.71-.49.61-1 .61-1 0-1.74-2.65-6.27-2.65-6.27l.37-.16c1.68 3.08 3.47 3.79 3.47 3.79a6 6 0 0 1-.55-2.4l.37-.15 2.26 4.56a43.32 43.32 0 0 0 0 6.18c.25 4 4.18 3.44 4.18 3.44a4.17 4.17 0 0 1 2.83-4.37c2.61-1 6.08 2.15 6.08 2.15.24-3.82.28-4.59-4.59-6.78a8.86 8.86 0 0 1-4.94-6.52l.28-.28c.42 1.07 5.38 4.64 8.9 7s5.88-1.38 5.88-1.38c-8.28-3.65-1.2-9-1.2-9-4.24-3.51-4.6 1.62-7.9 1a7.8 7.8 0 0 1-4.9-3h.4s1.71 1.87 3.12.59a7.17 7.17 0 0 1 3.76-1.43c4.55.46 4.31-3.18 4.31-3.18-8.3 1.12-7-5.83-7-5.83-1.39-.71-4.54-.11-4.57 2.75a3.84 3.84 0 0 1-2 3.68l-47.4-14.1c3.45 5.88 2.07 13.68 2.07 13.68-8.08 1.93-14.52-3.11-14.52-3.11-1.36 7.32-4.66 10.64-4.66 10.64a30.33 30.33 0 0 0-5.53-4.92 58.35 58.35 0 0 0-7-3.72c-2.38 2.5-6.43 3.19-6.43 3.19a12.24 12.24 0 0 0-.08-3.85 17.87 17.87 0 0 0-5.76-7.47s-.28 29.44-14 36.71S35.9 154.4 35.9 154.4c-4-.37-6-1.43-9.19-7.33s.62-11.24 4.72-11.8S36 140 36 140c5.64-3.5 4.6-7.06 2.49-10a9.39 9.39 0 0 0-5.09-3.57v-.41c.56.07 3.51.94 3.51.94 6.53 3 12-4.15 12-4.15-4.27-2.21-11.13-1.7-11.13-1.7v-.44c11.58-.09 12.48-4.73 12.48-4.73-3-1.44-10.56-.11-10.56-.11v-.42c9.55-.81 12.3-5.85 12.3-5.85a35.65 35.65 0 0 1-11.29-.3v-.42c12.31 1.2 11-5.58 11-5.58a47.48 47.48 0 0 0-9.39 1.56v-.41c9.94-2.43 8.85-7.13 8.85-7.13-5.27 0-7.12 2-7.12 2v-.43L48 95.44c2-10.68-3.23-22.54-3.27-25.73s4.46-4.83 4.46-4.83c-5.88-2.68-9.58.53-9.58.53a15.14 15.14 0 0 1 2.76 6.46l-.36.18A36.91 36.91 0 0 0 31.7 56.87c-3.48-2.95-.59-10.55-.59-10.55-12 5.71-8 15.11-8 15.11 6.72 1.27 11.14 8.34 11.14 8.34l-.28.28S17 53.64 7.12 70.42 6 90.22 7 100.7a16.83 16.83 0 0 1-7 15.49s7 .8 14.24-8.44 4.08-18 4.08-18h.4c2.17 5.28.79 8.83.79 8.83C30.26 96 29 87.91 29 87.91c-12.66.43-8-8.54-5.83-10 2.94-1.91 11.3-2.03 13.5 10.56s-4.31 22.37-11.06 31.69-8.34 17.14-6.38 27.62 15.23 10.67 15.23 10.67c-1.75 14.5 5.29 13.21 4.92 23.6S32.06 193.69 22 200.68a17.61 17.61 0 0 0-7.55 17.73c1.9-.25 2.55-.56 3.16-1.76 2.18-7.82 7.05-10.87 7.05-10.87v.41c-9.29 10-6.95 20-6.95 20 3.56.45 9.32-10.47 9.32-10.47h.4c-6 10.76-4.72 19.89-4.72 19.89 7.07-1.54 7.18-9 7.18-9h.38c.56 8.1-2.1 12.3-2.1 12.3 4.92.67 6.21-2.47 6.21-2.47h.4a4.06 4.06 0 0 1-2.13 5.51c-3.87 1.73-1.71 4.93-1.71 4.93a4.1 4.1 0 0 1 5.44-1.35c3.45 1.79 1.41 5.48 1.41 5.48 4.75-1.09 2.75-6.12 2.75-6.12z" fill="#9f9577" data-color="3"/>
            <path d="M153.6 215.1c-8.61-4.26-3-9.52-3-9.52-7-5.37-10.76 2-10.76 2-4.95 1.46-8 .41-8 .41v-.4c5.77-.18 6.37-2 8.32-3.07a15.78 15.78 0 0 0 3.34-2.52 6.75 6.75 0 0 1-4.46-2.56 4.11 4.11 0 0 1-.15-4.32s-5-.19-5.88 2.36.82 5.45.82 5.45c-5.83 2.94-14.75.33-14.75.33-19-6.86-11.7-18.21-6.94-19s6.28 6 6.28 6c4.33-7.36 2.38-16.22 2.38-16.22h.39c1.11 2.89.82 5.25 1.07 8.3s4.43 4.4 4.43 4.4c1.77-17.79-14.3-29-14.3-29l.25-.36c7 3.49 11.23 11 13.44 14.37s6.81 4.4 6.81 4.4c-5.06-29.19-25.4-31.37-37.81-32.41-10.6-.9-21.53 6.19-23.7 13.52s4 17 4 17C86 177.21 88 180.28 87.88 190s-3.6 11.63-2.41 20.55 8.07 9.57 8.07 9.57-2.65-6.07-2.84-9.17a12.57 12.57 0 0 1 1-5.65l.39.1a36.14 36.14 0 0 0 .74 8.06c1.77 5.85 7.44 8.82 7.44 8.82 1.33-3.48 1.19-4.81 1.19-4.81a34.19 34.19 0 0 1-1.11-11.92h.4s1.43 8.15 2.62 11.39 6 7.53 6 7.53a18.58 18.58 0 0 0 .86-6.26c-.21-3-2.3-8.89-2.3-8.89h.39c.09.75 3.65 7.48 4.33 9.07a12.35 12.35 0 0 0 2.88 3.39c-.2-3.62 4.7-5.63 4.7-5.63h.37a4.79 4.79 0 0 1 1.06 5.81c-1.71 3.54 1.32 4.5 1.32 4.5a3.64 3.64 0 0 1 5-3.67c3.57 1.15 2.68 3.78 2.68 3.78 1.23-.95 1.31-1.31 1.31-1.31.67-3.38-.95-4-1.08-4.37a21.24 21.24 0 0 0-1.08-2l.31-.25c.8.93 5.47 2.85 5.47 2.85s-.39 2.52 2.36 4.86 5.17 1 5.17 1a9.79 9.79 0 0 1 .77-5.51c1.12-2.45 4.47-2.72 4.47-2.72s-1.53-3.63-4.2-3.91a6.16 6.16 0 0 0-4.17 1.28 12.87 12.87 0 0 1-7.34-3.07l.29-.3a70.11 70.11 0 0 0 7 1.72c1.74.18 3.81-1.2 5.11-1.46 2.93-.58 4.93 5 4.93 5a5.16 5.16 0 0 0 3.62-3.28z" fill="#9f9577" data-color="3"/>
            <path d="M140.27 196.86c.1 2.75 2.93 4 4.47 3s2.15-2.66 6-1.61c0 0-2.29-4.84-7.52-4.41-.04-.02-3.05.27-2.95 3.02z" fill="#9f9577" data-color="3"/>
            <path d="M124.32 45.41c2.34-.81 2.71-3.58 1.39-4.62s-2.86-1.15-3-4.71c0 0-3.56 3.24-1.81 7.63.04 0 1.1 2.51 3.42 1.7z" fill="#9f9577" data-color="3"/>
            <path d="M167.31 108.15c1.18-1.21 1.45-2.72 5-2.44 0 0-2.85-3.89-7.39-2.62 0 0-2.62.78-2.06 3.19s3.28 3.07 4.45 1.87z" fill="#9f9577" data-color="3"/>
            <path d="M168.47 118.86c-1.39 2 0 4.5 1.65 4.54s3-.78 5.19 2c0 0 .92-4.73-3.11-7.2 0 0-2.34-1.38-3.73.66z" fill="#9f9577" data-color="3"/>
            <path d="M161.3 132.23c-2.39-.59-4.22 1.53-3.67 3.13s1.76 2.52-.09 5.56c0 0 4.75-.78 5.67-5.41 0 0 .5-2.68-1.91-3.28z" fill="#9f9577" data-color="3"/>
            <path d="M136.2 39.48c2.12 1.55 4.76.18 4.86-1.6s-.74-3.19 2.3-5.44c0 0-5-1.12-7.74 3.06 0 0-1.55 2.5.58 3.98z" fill="#9f9577" data-color="3"/>
            <path d="M150.11 46.4c-.89 2.47 1.15 4.63 2.89 4.23s2.86-1.58 5.85.72c0 0-.29-5.11-5.07-6.6 0 0-2.78-.82-3.67 1.65z" fill="#9f9577" data-color="3"/>
            <path d="M146 62.33c-1.37.11-2.35 2.17-1.12 3.77s3.07.35 3.07.35a5.85 5.85 0 0 0 2.18-6c-1.66 2.37-2.76 1.76-4.13 1.88z" fill="#9f9577" data-color="3"/>
            <path d="M142.66 126.68c-1.67.94-.76 2.85-.76 2.85a5.57 5.57 0 0 0 5.36 2.89c-2-1.9-1.29-2.84-1.2-4.15s-1.72-2.52-3.4-1.59z" fill="#9f9577" data-color="3"/>
            <path d="M66.23 227.55s-3 .3-2.91 3 2.93 4 4.46 3 2.16-2.65 6-1.6c-.04.05-2.32-4.82-7.55-4.4z" fill="#9f9577" data-color="3"/>
            <path d="M75.33 243.8s-2.79-1.19-4 1.27.63 5 2.49 4.76 3.17-1.31 6 1.45c-.02 0 .3-5.35-4.49-7.48z" fill="#9f9577" data-color="3"/>
            <path d="M58.76 255.89s.18-3-2.69-3.38-4.65 2.22-3.79 3.91 2.42 2.57.73 6.16c-.01 0 5.37-1.45 5.75-6.69z" fill="#9f9577" data-color="3"/>
            <path d="M160.48 212.36s-.9-5.28-6-6.27c0 0-3-.53-3.62 2.14s1.73 4.69 3.5 4.07 2.73-1.98 6.12.06z" fill="#9f9577" data-color="3"/>
            <path d="M147.28 220.79c-2.5 1.15-2.62 4.26-1 5.26s3.28 1 3.77 4.89c0 0 3.59-4 1.19-8.62-.04 0-1.46-2.68-3.96-1.53z" fill="#9f9577" data-color="3"/>
            <path d="M130 225.21c-.6-1.77-3.65-2.4-5.36-.24s.55 4.17.55 4.17c4 3.45 8.67.9 8.67.9-3.69-1.41-3.25-3.04-3.86-4.83z" fill="#9f9577" data-color="3"/>
            <path d="M37.16 249.18c.24-1.85-2.23-3.75-4.71-2.57s-1.33 4-1.33 4c2.05 4.83 7.4 4.6 7.4 4.6-2.71-2.88-1.59-4.21-1.36-6.03z" fill="#9f9577" data-color="3"/>
            <path d="M92.25 60.71c2.08.14 4.27-1.32 6.47-1.89s6.49.85 12 2.61 6.47-3.91 6.47-3.91a7 7 0 0 1-4.44 1.4c-2.08 0-3-1-9.1-2s-11.4 3.79-11.4 3.79z" fill="#9f9577" data-color="3"/>
            <path d="M63.76 75l.27.28c-3 7-11.61 9.41-11.61 9.41l6.83 15.52c6.94-2.69 12.3-19.34 12.3-19.34h.31C70.86 90.8 64 99 64 99s1.16.36 5.2 4.36a9.81 9.81 0 0 1 3 7.7c8.66-1.52 7.73-17.92 7.73-17.92l.36-.06c1.55 6-2 15.22-2 15.22a29.73 29.73 0 0 1 12 7.76c.75-1.19 2.26-4 3.51-10.18 1.62-8-6.09-18-6.09-18l.4-.3c7.09 7 7.21 18.32 7.21 18.32 6.88 4.93 13.07 3.32 13.07 3.32s.74-2-.94-9.27c-1.34-5.75-9.09-16.14-9.09-16.14l.32-.16c3.38 2 7.88 10.75 7.88 10.75 9.32 1.62 14.41-3.81 14.41-3.81-3.51-.94-5.26-2.76-7.17-4.67-2.12-2.1-2.85-3.89-4-5.05-5.43-5.75-12.58-7-16.74-9.42s-5-4.92-5-4.92l-1.36.81c-2.86-1.21-4.46-5.75-4.46-5.75-.94.38-1.54.6-1.54.6-1.05-1.29-2.24-2.85-1.94-7.74a9.32 9.32 0 0 1 3.49-7.06l.26.2c-4.51 9.1-1.14 12.69-1.14 12.69.94-3.55 1.76-4.48 1.76-4.48l.31.09c-1.58 7.37 3.39 9.8 3.39 9.8-.15-1.27.43-7.76.43-7.76l.31.06a15.6 15.6 0 0 0 4.6 11.7l.93-3.28 5.35 2c4.88 1.83 3.42 5.21 3.42 5.21a3.18 3.18 0 0 0 1.92-2.26c.39-.93 0-2.33.54-4.88s-.16-3.71-.16-3.71c-1.31-2.64-3.53-2.24-8.25-1.31s-4.88.26-4.88.26c-2.39-2.16-2-8.06-.91-9.51s4.86.55 10 2.67 6.14-2.75 6.14-2.75l.1-3.93-3.93-1.12.83-1.12 3.34 1.25L107 43c.42-2.58-10.53-1.8-11.24-2.21s-.25-1.27-.19-1.64a1.5 1.5 0 0 0-.34-.88c-6.74-5.54-16.66-3.09-16.66-3.09L79.89 37l-.3.27c-9-7.11-15.69-4-15.69-4 1.24 7.13 5.37 10.51 5.37 10.51l-.33.35-4.13-3.43C55.51 43.65 53.44 59 53.44 59c4.31 1.56 8.68-1.27 8.68-1.27l.18.39s-10.49 5.44-9.76 13.35-1.33 11.38-1.33 11.38C58.89 82.46 63.76 75 63.76 75zM84 40.57l10 2-.08.39s-2.68 2.32-5.42 2-4.36-3.86-4.76-4.12z" fill="#9f9577" data-color="3"/>
        </g>
    </g>
</svg>
